<svg xmlns="http://www.w3.org/2000/svg" width="169.427" height="169.678" viewBox="0 0 169.427 169.678"><defs><style>.a{fill:#435e35;}.b{fill:#89a07d;}.c{fill:#6a7f5d;}.d{fill:#6a7f5c;}.e{fill:#435e37;}.f{fill:#6c805e;}.g{fill:#889f7c;}.h{fill:#b3c2b4;}.i{fill:#445f37;}.j{fill:#446038;}.k{fill:#b3c2b2;}.l{fill:#697e5b;}.m{fill:#b1c1b1;}.n{fill:#6e8261;}.o{fill:#b6c4b6;}.p{fill:#b9c7b7;}.q{fill:#bacaba;}.r{fill:#48623b;}.s{fill:#afbfb0;}.t{fill:#bac8bb;}.u{fill:#6b8160;}.v{fill:#657c59;}.w{fill:#b4c2b0;}.x{fill:#9bb098;}.y{fill:#7f9373;}.z{fill:#6a8262;}.aa{fill:#8ca68a;}.ab{fill:#76896a;}.ac{fill:#c9cfc5;}.ad{fill:#48643c;}.ae{fill:#a6bda9;}.af{fill:#839275;}.ag{fill:#7b8f6f;}.ah{fill:#89997d;}.ai{fill:#647e5c;}.aj{fill:#94a58e;}.ak{fill:#758a68;}.al{fill:#b4bdad;}.am{fill:#c1cfc2;}.an{fill:#697e5d;}.ao{fill:#889f7d;}.ap{fill:#59724f;}.aq{fill:#bfcec0;}.ar{fill:#b3c2b1;}.as{fill:#59714d;}.at{fill:#d4d6ce;}.au{fill:#bccbbc;}.av{fill:#acbdab;}.aw{fill:#85987c;}.ax{fill:#8c9f84;}.ay{fill:#a8b9a6;}.az{fill:#96b096;}.ba{fill:#819d7e;}.bb{fill:#506c45;}.bc{fill:#6d825f;}.bd{fill:#788d6c;}.be{fill:#b1c2ad;}.bf{fill:#94af94;}.bg{fill:#6d815f;}.bh{fill:#7a8f6f;}.bi{fill:#4b663f;}.bj{fill:#758e6d;}.bk{fill:#738766;}.bl{fill:#040505;}</style></defs><g transform="matrix(-0.719, -0.695, 0.695, -0.719, 82.598, 169.678)"><g transform="translate(0 0)"><g transform="translate(23.329 54.296)"><g transform="translate(0 0)"><path class="a" d="M26.036,6.021,24.693,4.833c-.528.3-.484.87-.576,1.352-.462,2.4-.865,4.8-1.472,7.173A24.493,24.493,0,0,1,20.5,19.085c-.758,1.389-1.442,2.818-2.158,4.23a2.127,2.127,0,0,1-.119.517c1.171-.182,1.518-1.559,2.8-1.663-1.062,2.6-3.407,4.118-5.329,5.991a5.163,5.163,0,0,0-2.482,2.177A38.932,38.932,0,0,1,2.661,41.017c-.726.511-1.433,1.247-2.5.929-.648-1.869.762-2.941,1.669-4.176.581-.792,1.51-1.312,1.847-2.308A9.77,9.77,0,0,1,5.9,32.23c2.972-2.5,4.518-5.919,6.091-9.324.451-1.127,1.108-2.156,1.575-3.277,3.561-5.608,5.1-12.062,7.57-18.125a7,7,0,0,1,.6-.977A1.252,1.252,0,0,1,22.185.2,8.39,8.39,0,0,0,27.232,0c.91.493.939,1.413,1.1,2.269a3.5,3.5,0,0,1-.659,2.161c-.157.22-.334.424-.5.635-.148.216-.294.433-.451.644A.83.83,0,0,1,26.036,6.021Z"/></g></g><g transform="translate(24.133 71.499)"><g transform="translate(0 0)"><path class="b" d="M38.725,2.37,43.314.734c.368-.132.736-.265,1.1-.4A1.237,1.237,0,0,1,44.972.26h0c.321.035.536-.273.85-.259h0c.632.86-.116,1.28-.614,1.679a18.419,18.419,0,0,1-1.756,1.128c-1.88,1.1-3.173,2.859-4.807,4.234a5.677,5.677,0,0,1-1.036.78,5.718,5.718,0,0,0-1.293.847A6.715,6.715,0,0,1,35.3,9.4c-2.132,1.579-4.394,2.963-6.626,4.389a68.776,68.776,0,0,1-8.854,4.377,1.62,1.62,0,0,0-.968.648c-1.285,2.381-3.632,3.417-5.867,4.52C9.612,25,6.216,26.622,2.841,28.294a2.261,2.261,0,0,1-1.924.166c-1.215-1.4-1.282-2.379.166-3.227,4.124-2.416,7.7-5.643,11.879-7.956C20.5,13.108,27.534,8.093,35.232,4.2,36.4,3.607,37.761,3.353,38.725,2.37Z"/></g></g><g transform="translate(68.941 61.542)"><g transform="translate(0 0)"><path class="a" d="M42.232,7a64.228,64.228,0,0,1-11.885-.513,7.306,7.306,0,0,0-1.384-.123c-3.908.157-7.82.092-11.732.311-4.368.246-8.752.243-13.129.329A4.64,4.64,0,0,1,0,5.425c.094-.729.7-.9,1.247-1.055a32.7,32.7,0,0,1,5.422-1.5C15.449,1.633,24.247.566,33.111.141A8.361,8.361,0,0,1,34.232.008a4.173,4.173,0,0,1,.57,0c.095.007.189.02.284.028.972.2,1.967.278,2.922.546.677.191,1.5.258,1.519,1.26l.6.52c.288.077.473.371.8.377l.539.452c.928.69.579,1.038-.343,1.084-.783.039-1.57-.112-2.358-.15-3.94-.19-7.876-.077-11.81.093-.263-.016.086,0-.179-.015-.182-.011-.364-.018-.545-.028.148.092.317.019.481.062A128.576,128.576,0,0,1,39.782,5.29a4.748,4.748,0,0,1,2.264.689C42.392,6.215,42.921,6.531,42.232,7Z"/></g></g><g transform="translate(28.121 70.966)"><g transform="translate(0 0)"><path class="c" d="M43.547.035a2.829,2.829,0,0,1,2.617,1.029,1,1,0,0,1-.047,1.549C37.748,10.228,29.574,18.1,19.482,23.5A95.535,95.535,0,0,1,7.937,28.823,36.4,36.4,0,0,0,2.656,31.1C1.823,31.57.88,32.168,0,31.092c.115-1.252,1.145-1.714,2.025-2.262,4.042-2.518,8.184-4.89,12-7.75a42.063,42.063,0,0,1,7.1-4.682A80.229,80.229,0,0,0,34.8,7.687a3.775,3.775,0,0,1,.571-.373c1.86-1.179,3.218-2.917,4.851-4.348C41.585,2.281,42.192.732,43.547.035Z"/></g></g><g transform="translate(24.618 73.54)"><g transform="translate(0 0)"><path class="a" d="M3.479,28.464a1.575,1.575,0,0,0,1.7.013,26.524,26.524,0,0,1,6.676-2.98c2.56-.916,4.928-2.261,7.419-3.333a35.948,35.948,0,0,0,5.537-3.054c1.486-.978,3.038-1.858,4.529-2.83,1.1-.719,2.161-1.508,3.229-2.279.962-.695,1.925-1.4,2.9-2.054a19.863,19.863,0,0,0,2.61-2.116c2.7-2.552,5.4-5.1,8.066-7.68A16.6,16.6,0,0,1,49.231.023c.092-.056.256.007.387.015.076,1.26-.825,2.026-1.491,2.9-.195.256-.545.4-.733.653-2.569,3.53-5.949,6.177-9.418,8.735-2.716,2-5.444,3.993-8.091,6.084-1.4,1.1-2.623,2.427-3.955,3.62a25.468,25.468,0,0,1-9.483,5.62,11.3,11.3,0,0,0-1.846.716,28.7,28.7,0,0,1-7.145,2.355c-1.22.266-2.486.317-3.73.466-1.256-.118-2.682.581-3.683-.763A.606.606,0,0,1,.083,29.9a3.811,3.811,0,0,1,.855-.641,11.81,11.81,0,0,1,1.346-.719,2.539,2.539,0,0,1,.47-.17,1.463,1.463,0,0,1,.5-.007C3.327,28.4,3.4,28.43,3.479,28.464Z"/></g></g><g transform="translate(0.649 78.69)"><g transform="translate(0 0)"><path class="c" d="M18.977,24.925c-2.055,1.566-4.122,3.119-6.16,4.709-.625.488-1.173,1.076-1.752,1.623a1.156,1.156,0,0,0-.45,1.042,1.927,1.927,0,0,1-.765,1.75,11.185,11.185,0,0,0-2.094,2.875C7.08,38.06,6.252,39.1,5.68,40.307a15.266,15.266,0,0,0-1.694,4.855c-.119,1.079-.9,1.425-1.875.92A5.83,5.83,0,0,1,.968,45.3a2.6,2.6,0,0,1-.85-2.848,18.382,18.382,0,0,1,3.856-7.105A50.459,50.459,0,0,1,11.8,27.73,3.118,3.118,0,0,0,13.1,26.269a20.349,20.349,0,0,1,2.764-5.036c1.482-2.277,2.908-4.589,4.6-6.723a4.486,4.486,0,0,0,.842-1.973c.147-.74.7-1.381.752-2.211.033-.536.146-1-.273-1.478a1.546,1.546,0,0,1-.043-2.019C22.76,5.282,23.791,3.742,24.817,2.2c.027-.473.594-.623.648-1.08l.426-.561c.185-.367.39-.7.892-.5A.662.662,0,0,1,26.9.61c-.1.377-.268.731-.4,1.1C25.117,5.256,23.388,8.7,23.58,12.679c.045.905-.806,1.48-1.11,2.277-1.768,3.028-3.84,5.85-5.837,8.72a1.156,1.156,0,0,1-.8.5c.623-.007.859-.6,1.29-.9A16.059,16.059,0,0,1,22.1,20.744a2.132,2.132,0,0,1,.606,0,1.349,1.349,0,0,1,.554.235.787.787,0,0,1-.075,1.286,5.552,5.552,0,0,1-1.043.5A7.448,7.448,0,0,0,18.977,24.925Z"/></g></g><g transform="translate(22.782 73.868)"><g transform="translate(0)"><path class="d" d="M40.076,0c.087.482-.2.713-.577.916-3.125,1.7-6.283,3.339-9.358,5.124-3.128,1.816-6.164,3.792-9.258,5.668-2.084,1.264-4.2,2.483-6.3,3.707A61.572,61.572,0,0,0,9,19.133a41.352,41.352,0,0,1-6.091,4.01,1.987,1.987,0,0,0-.924.7c-.554.9-.054,1.491.57,2.054-.606.745-1.078.256-1.558-.167C-.03,24.635-.473,23.487.7,22.2c.971-.1,1.519-.982,2.385-1.275C4.47,19.415,6.3,18.452,7.8,17.058a35.5,35.5,0,0,0,4.326-5.086c.7-.95,1.454-1.864,2.075-2.864.329-.528.636-.769,1.254-.664a2.39,2.39,0,0,0,.774-.127c-.035,1.062-1.49,1.155-1.511,2.222,0,.028.1.073.157.084a.736.736,0,0,0,.192-.013c2.035-1.364,4.3-2.312,6.406-3.548a41.812,41.812,0,0,1,7.065-3.123C32.082,2.66,35.664,1.487,39.23.27c.319.028.529-.284.844-.269Z"/></g></g><g transform="translate(49.365 18.121)"><g transform="translate(0 0)"><path class="c" d="M0,42.2l.56-.582c.021-.184.044-.368.066-.554l.64-.556c2.133-1.466,3.31-3.727,4.747-5.762,2.644-3.743,4.3-8.035,6.6-11.973a4.949,4.949,0,0,1,.283-.506c.249-.4.483-.8.706-1.213a26.1,26.1,0,0,0,2.564-5.044c.149-.3.33-.58.477-.88.059-.15.127-.3.192-.446.084-.23.166-.46.24-.7.041-.168.1-.33.153-.493a21.753,21.753,0,0,0,1.558-5.123,61.119,61.119,0,0,0,1.335-7.2c.053-.5-.154-1.44.962-1.1a17.655,17.655,0,0,1,.287,4.921A25.645,25.645,0,0,0,21.4,9.142a8.854,8.854,0,0,1-.386,3.709,14.08,14.08,0,0,0-.568,2.3c-.518,3.442-2.071,6.515-3.394,9.671a1.4,1.4,0,0,1-.245.307C15.268,23.921,15.469,24,14.77,25.8c-2.426,6.25-5.165,12.343-10.3,16.964a8.589,8.589,0,0,1-2.816.131,4.033,4.033,0,0,1-.114-.914c-.163.267-.274.559-.42.834A1.274,1.274,0,0,1,0,42.2Z"/></g></g><g transform="translate(83.066 21.76)"><g transform="translate(0 0)"><path class="c" d="M0,20.73a3.743,3.743,0,0,1,2.256-2.348.853.853,0,0,0,.586-.922,6.015,6.015,0,0,1,.968-3.569A18.813,18.813,0,0,0,4.676,11.9,40.1,40.1,0,0,1,8.76,4c.184-.56.857-.756,1-1.346q.524-.6,1.045-1.195c.836.808.207,1.621-.083,2.349-.954,2.4-2.124,4.708-3.3,7.006-.321.373-.409.877-.71,1.261A7.994,7.994,0,0,0,5.5,13.9a25.931,25.931,0,0,1,1.618-2.49A1.56,1.56,0,0,1,7.85,10.6c.765.348.765.348.276,1.492a8.475,8.475,0,0,0,.941-2.177c1.766-2.688,2.292-5.886,3.617-8.753.257-.555.274-1.556,1.374-1a4.806,4.806,0,0,1-.243,3.06c-1.029,2.789-1.936,5.626-2.8,8.472a8.372,8.372,0,0,1-2.7,4.511,1.249,1.249,0,0,0-.249.305c-.03.045-.02.116-.029.183.093.373.4.245.639.255.065,0,.132-.019.2-.018a52.051,52.051,0,0,0,8.468-.777,13.6,13.6,0,0,1,4.344.119c.843.159,1.7.226,2.552.35a5.383,5.383,0,0,1,3.389,1.42c-.383.76-1.167.847-1.849,1-1.933.438-3.86.894-5.79,1.344a.975.975,0,0,1-.454-.313c-1.8-1.614-4.089-1.391-6.191-1.413a27.337,27.337,0,0,0-11.8,2.254C1.021,21.156.43,21.479,0,20.73Z"/></g></g><g transform="translate(81.765 41.504)"><g transform="translate(0 0)"><path class="e" d="M30.321.265A1.857,1.857,0,0,1,31.36.81a1.605,1.605,0,0,1-.136,2.7,8.545,8.545,0,0,1-2.8,1.476c-3.037.941-6.06,1.933-9.119,2.8-1.66.469-3.3.973-4.911,1.59a29.293,29.293,0,0,1-5.328,1.584A4.585,4.585,0,0,1,7.5,11.12a34.3,34.3,0,0,0-4.557-.3A3.606,3.606,0,0,1,0,9.42C.791,7.829,2.539,8.193,3.8,7.553c3.285-.769,6.479-1.864,9.738-2.734,4.225-1.127,8.6-1.555,12.77-2.9A6.07,6.07,0,0,1,27.936,1.7c-.211-.119-.486-.051-.634-.283a.717.717,0,0,1,.021-.785A2.759,2.759,0,0,1,30.321.265Z"/></g></g><g transform="translate(71.83 3.853)"><g transform="translate(0 0)"><path class="b" d="M4.487,21.295c.077-.79.769-1.193,1.155-1.786,1.857-2.847,3.773-5.656,5.673-8.475a1.984,1.984,0,0,1,.277-.278c1.276-1.419,2.2-3.111,3.489-4.5.068-.162.242-.282.255-.487a.453.453,0,0,1-.321.011c.224-.986,1.094-1.454,1.719-2.112A6.046,6.046,0,0,1,19.645,1.7,3.032,3.032,0,0,0,20.77.93a3.866,3.866,0,0,1,1.5-.93c.663.941-.093,1.481-.585,2.1-2.861,1.987-4.456,4.574-3.875,8.195A6.268,6.268,0,0,1,15.866,13.7a5.507,5.507,0,0,0-1.917,1.916A32.038,32.038,0,0,1,8.9,22a9.591,9.591,0,0,1-1.418,1.652,2.3,2.3,0,0,0-.632,2.857,9.488,9.488,0,0,1-2.484,4.272,6,6,0,0,0-2.082,2.053c-.454.614-1.08,1.463-1.918.893-.819-.556-.074-1.32.258-1.9,1.192-2.092,2.688-4,2.656-6.648C3.269,23.855,4.206,22.635,4.487,21.295Z"/></g></g><g transform="translate(22.895 45.808)"><g transform="translate(0 0)"><path class="b" d="M0,47.389C-.08,46.575,1,46.34.924,45.511a8.79,8.79,0,0,1-.042-1.969,21.169,21.169,0,0,1,.951-4.224,41.86,41.86,0,0,1,2.185-5.057c0-.32.338-.509.311-.837q.128-.136.261-.268a1.055,1.055,0,0,1,.142-.9c.388-.489-.264-.021-.192-.213a1.953,1.953,0,0,1,.194-.553A83.689,83.689,0,0,0,11.9,19.47c.6-1.16,1.069-2.389,1.6-3.586,1.55-2.308,2.736-4.868,4.507-7.009a13.613,13.613,0,0,0,3.335-7.444A1.446,1.446,0,0,1,22.513,0a1.027,1.027,0,0,1,.543.205c.06.077.119.156.18.233a1.562,1.562,0,0,1,.118.567,3.073,3.073,0,0,1-.083.57c-.058.28-.12.56-.174.843a43.4,43.4,0,0,1-3.35,11.107c-.321.708-.489,1.541-1.451,1.7a.675.675,0,0,1-.388-.406,3.126,3.126,0,0,1,.941-2.027,151.663,151.663,0,0,0-13.771,25.4,8.949,8.949,0,0,0-.568.932c-.065.166-.14.326-.211.488.054.679-1.093,1.07-.444,1.891.036.971-.778,1.447-1.254,2.11-.207.288-.583.454.051.632A1.821,1.821,0,0,1,2.4,45.714C1.77,46.511,1.21,47.414,0,47.389Z"/></g></g><g transform="translate(36.458 49.147)"><g transform="translate(0)"><path class="f" d="M1.39,35.331A1.8,1.8,0,0,1,.451,36a.588.588,0,0,1-.346-.108c-.137-.08-.137-.207-.019-.33.272-.282.546-.561.82-.84l1.647-1.683c1.159-1.075,2.312-2.155,3.479-3.22A7.722,7.722,0,0,0,7.7,27.35a10.707,10.707,0,0,0-1.858,1.6c-.52.476-1.024.972-1.517,1.443-.413-.3-.209-.571-.12-.778a3.137,3.137,0,0,1,.46-.621c.312.041.476-.315.782-.291q5.48-5.211,10.961-10.418a8.894,8.894,0,0,1,2.308-1.868,2.074,2.074,0,0,0,.8-.851,39.084,39.084,0,0,1,5.5-6.52c1.635-1.554,3.3-3.079,4.89-4.677C31.361,2.9,33.149,1.851,34.681.48A1.585,1.585,0,0,1,35.95.012a.942.942,0,0,1,.483.274A.379.379,0,0,1,36.4.824a24.674,24.674,0,0,1-2.4,2.076,18.659,18.659,0,0,0-2.157,1.753c-2.164,2.056-4.349,4.092-6.466,6.195-1.314,1.305-2.522,2.717-3.772,4.087a.675.675,0,0,0-.17.731c.122.3.392.3.661.272l7.913-.736c.575.847.028,1.27-.624,1.654-.924.07-1.858.084-2.773.222a11.343,11.343,0,0,1-4.931-.123,1.443,1.443,0,0,0-1.286.282,24.7,24.7,0,0,0-3.541,2.872Q9.7,26.882,2.5,33.608c-.338.317-.661.652-.978.99A.675.675,0,0,0,1.39,35.331Z"/></g></g><g transform="translate(75.075 8.103)"><g transform="translate(0 0)"><path class="c" d="M19.509.286a7.734,7.734,0,0,1-.8,3.053c-1.169,2.74-2.06,5.626-3.633,8.162-2.442,3.937-4.132,8.313-6.986,12-1.5,1.937-2.991,3.872-4.334,5.928a16.609,16.609,0,0,1-2.192,2.291C.528,31.748.1,31.154,0,30.207a3.524,3.524,0,0,1,.331-1.218c2.97-4.848,6.136-9.569,9.427-14.2a72.559,72.559,0,0,0,6.729-11.2A13.8,13.8,0,0,1,18.366.329C18.738.078,19.108-.244,19.509.286Z"/></g></g><g transform="translate(49.779 33.143)"><path class="g" d="M1.555,23.551a5.088,5.088,0,0,1-.259-.935,1.922,1.922,0,0,0-.725-1.342,7.522,7.522,0,0,1,.964-7.389A5.246,5.246,0,0,0,2.8,11.077c.285-1.614.124-3.612,2.608-3.8.555-.043.5-.7.556-1.149.148-1.145.349-2.2,1.7-2.635.932-.3.432-1.452.934-2.069-.489.524-.842,1.259-1.747,1.126A5.683,5.683,0,0,1,9.5.027c.907-.151,1.341.341,1.549,1.14a18.571,18.571,0,0,1,.512,3.522,1.622,1.622,0,0,1-.608,1.355A4.708,4.708,0,0,0,9.8,10.615c.133.534-.17.846-.561,1.115a2.189,2.189,0,0,0-1.971,2.113c-.085.855-.1,2.152-1.425,1.935-1.175-.193-.962-1.386-1-2.155a22.232,22.232,0,0,0-.284,6.445A1.517,1.517,0,0,1,3.6,21.39c-.4.144-.762-.538-.907-.3-.39.644.9.3.692.973A1.782,1.782,0,0,1,1.555,23.551Z"/></g><g transform="translate(70.08 56.939)"><path class="b" d="M18.544.088c1.329-.3,2.593.241,3.894.31.653.034,1.3.214,1.954.216,2.639.007,4.99,1.055,7.369,2a3.468,3.468,0,0,1,.77.6c-.1.786-.718.678-1.216.628-4.051-.4-8.057.2-12.076.506-.178.014-.357.015-.534.016-.087.006-.175.006-.263.013-.861.013-1.709.419-2.586.1a5.276,5.276,0,0,0-4.459.479C9,5.531,6.519,5.6,4.146,6.285c-.17.058-.345.1-.52.146-.261.071-.524.133-.787.192-.9.07-1.738.605-2.679.334a.617.617,0,0,1-.149-.53C1.247,4,3.76,3.36,5.967,2.555,10,1.085,14.314.735,18.544.088Z"/></g><g transform="translate(44.911 34.108)"><g transform="translate(0 0)"><path class="c" d="M11.712,1.581,13.546,0c.371.4.061.843.074,1.247a6.051,6.051,0,0,1-.134,1.375c-.115.567-.412.751-.987.431-.35-.194-.635.088-.786.4a3.706,3.706,0,0,0-.4,1.523c-.014.528-.035,1.058-.083,1.585s-.255.654-.779.49A5.182,5.182,0,0,0,9.9,6.82a.916.916,0,0,0-1.122.586,10.783,10.783,0,0,0-.718,3.073,12.747,12.747,0,0,1-.245,1.558,1.028,1.028,0,0,1-.384.658c-1.6.725-1.671,2.326-1.958,3.67a10.286,10.286,0,0,0-.039,3.943c-.364.127-.873.114-1.026.492-.367.907-.825.771-1.642.528C2,21.1,1.3,20.363.376,20.747c-.64-.4-.306-.941-.132-1.39A38.413,38.413,0,0,0,1.515,14.4c.023-.187.059-.369.1-.553s.069-.369.114-.551c.043-2.035,1.142-3.947.671-6.05a.872.872,0,0,1,.459-1.017c.556-.17.785.32.963.763A6.668,6.668,0,0,1,4.4,9.859c.027.654.033,1.308.049,1.962a1.686,1.686,0,0,1,0,1.3,4.831,4.831,0,0,1,.719-1.277,3.363,3.363,0,0,0,.261-.533A22.765,22.765,0,0,1,11.712,1.581Z"/></g></g><g transform="translate(36.388 39.226)"><g transform="translate(0 0)"><path class="c" d="M9.4,6.934a.7.7,0,0,0-.931.488,5.344,5.344,0,0,0-.351,1.536c-.009,1.288-.637,2.419-.826,3.659a1.616,1.616,0,0,1-1.166,1.459,1.289,1.289,0,0,0-.7.661c-1.492,2.4-3,4.786-4.492,7.182-.223.357-.455.65-.933.55v0c-.024-.319.308-.515.289-.832,1.023-2.719,2.058-5.433,3.064-8.159.343-.929.624-1.881.914-2.829a18.19,18.19,0,0,1,1.2-2.914,10.054,10.054,0,0,0,.981-3.364,16.368,16.368,0,0,1,.4-2.344C7.4-.068,8.282-.443,10.348.463,11.164,2.2,10.658,5.649,9.4,6.934Z"/></g></g><g transform="translate(73.718 2.549)"><path class="h" d="M19.981,6.1a90.939,90.939,0,0,1-8.3,14.443c-2.767,3.8-5.359,7.716-7.9,11.666-.608.944-1.273,1.851-1.913,2.775-.361.761-.838,1.24-1.731.718-.515-1.166.537-1.81.892-2.686a4.682,4.682,0,0,0,.717-.838.449.449,0,0,1,.405-.284,8.269,8.269,0,0,0,.716-.881c.666-1.084,1.3-2.186,1.95-3.281.9-2.639,2.7-4.716,4.336-6.893,1.36-1.343,2-3.191,3.221-4.621.451-.528.72-1.254,1.446-1.528a22.277,22.277,0,0,0,1.851-3.338,28.768,28.768,0,0,1,3.789-8.082,3.944,3.944,0,0,0,.918-1.966c.435-.389.865-.784,1.308-1.162A.592.592,0,0,1,22.411.1c.288.17.542.417.461.775a12.918,12.918,0,0,1-.424,1.282A2.91,2.91,0,0,0,21.42,3.576c-.1.132-.2.267-.3.4q-.114.222-.24.436C20.816,5.1,20.17,5.479,19.981,6.1Z"/></g><g transform="translate(58.711 13.591)"><g transform="translate(0 0)"><path class="c" d="M.655,30.045c-.252.114-.726.466-.646-.109.213-1.548.588-3.074.912-4.605.073-.345.29-.27.58-.2.582.133.8-.033.743-.475-.171-1.293-.373-2.582-.547-3.874a1.417,1.417,0,0,0-1.132-1.2A1.285,1.285,0,0,0,.7,19.436c.442-.625,1.406-.473,1.778-1.192.337-.647.6-1.341.994-1.947a12.986,12.986,0,0,0,2.144-8.1c-.107-1.844.078-3.7.023-5.552A2.742,2.742,0,0,1,7.093.218,1.254,1.254,0,0,1,8.238.075c.439.143.857.351,1.285.531,1.183.455,1.182,1.337.848,2.34C7.018,5.63,7.506,9.692,6.785,13.283A12.341,12.341,0,0,1,5.5,17.306c-1.4,2.429-1.46,5.314-1.908,8.048a3.276,3.276,0,0,1-.365,1.134C2.195,27.546,2.374,29.484.655,30.045Z"/></g></g><g transform="translate(68.007 25.149)"><g transform="translate(0 0)"><path class="c" d="M7.865,9.294a3.4,3.4,0,0,1-.23.275c-.027.317-.326.5-.381.808a8.453,8.453,0,0,0-1.42,2.53,1.462,1.462,0,0,1-.467,1.3c-1.619,1.211-2.237,3.006-2.8,4.82-.02.137-.22.288-.08.412.122.108.305-.037.467-.07.707-.031,1.216-.719,1.967-.576-.291,1.022-1.163,1.582-1.84,2.292a1.8,1.8,0,0,1-1.287.444A1.538,1.538,0,0,1,.032,20.034,9.761,9.761,0,0,1,.455,16.3,54.959,54.959,0,0,1,4.642,6.224,41.245,41.245,0,0,1,7.4,1.4c.126-.287.4-.49.454-.818L8.311,0a1.9,1.9,0,0,1,.325.147c-.28,1.076-.542,2.161-.887,3.217-.309.948-.719,1.861-.168,2.855a.594.594,0,0,1-.15.723C6.062,8.321,5.462,10.2,4.309,11.72a.306.306,0,0,0,.137.481.453.453,0,0,0,.361-.047,4.454,4.454,0,0,0,1.3-1.466C6.5,10.022,6.936,9.324,7.865,9.294Z"/></g></g><g transform="translate(83.843 40.791)"><g transform="translate(0 0)"><path class="d" d="M1.118,3.739.254,3.476c-.675-.853.161-1.063.625-1.235A31.82,31.82,0,0,1,18.472.576a.788.788,0,0,1,.45.37l.027.168a1.038,1.038,0,0,1-.794.8C13.7,3.484,9.2,4.836,4.428,4.911A4.79,4.79,0,0,1,2.3,4.488,2.191,2.191,0,0,0,1.118,3.739Z"/></g></g><g transform="translate(53.837 41.431)"><g transform="translate(0 0)"><path class="i" d="M0,19.452c.024-.129,0-.29.076-.381a28.038,28.038,0,0,1,2.233-2.747A14.335,14.335,0,0,0,4.8,12.785c1.376-2.555,2.725-5.125,4.08-7.69A7.42,7.42,0,0,0,9.91,1.923,4.388,4.388,0,0,1,10.274.6a.966.966,0,0,1,1.811.067c.114.375.168.769.248,1.155A22,22,0,0,1,6.928,12.407a21.007,21.007,0,0,0-1.853,2.55,17.09,17.09,0,0,1-3.342,3.612A3.161,3.161,0,0,1,0,19.452Z"/></g></g><g transform="translate(83.019 39.805)"><g transform="translate(0 0)"><path class="j" d="M2.794,5.057a11.241,11.241,0,0,0,4.316.218,28.815,28.815,0,0,0,6.24-1.084c2.135-.713,4.281-1.4,6.423-2.092A22.807,22.807,0,0,1,24.662.825,24.83,24.83,0,0,0,27.676,0a.359.359,0,0,1,.251.274c-.08.922-.87,1.045-1.506,1.339A10.314,10.314,0,0,0,23.5,3.2a2.391,2.391,0,0,1-.478.3,4.281,4.281,0,0,1-.53.213A146.023,146.023,0,0,0,7.876,7.033a40.885,40.885,0,0,0-4.4,1.715,2.174,2.174,0,0,1-1.44,0,5.69,5.69,0,0,0-.926-.3C-.313,8.255-.206,7.571.53,6.679L1.944,5.317C2.245,5.287,2.434,4.892,2.794,5.057Z"/></g></g><g transform="translate(65.848 60.942)"><g transform="translate(0 0)"><path class="k" d="M7.984,1.957A30.1,30.1,0,0,1,14.465.8c.384-.032.765-.1,1.148-.148a8.594,8.594,0,0,1,4.523-.4L22.678,0c.26.4,1.066.489.7,1.242-.562.6-1.337.513-2.041.6-2.756.342-5.522.574-8.257,1.093a18.528,18.528,0,0,0-3.192.948A45.065,45.065,0,0,0,3.378,5.768c-.111.035-.191.17-.285.257-.326.036-.653.061-.976.11A1.352,1.352,0,0,1,.5,5.35c-.067-.144-.331-.2-.5-.289C.186,4.5.666,4.052.624,3.407c.489-.492,1.18-.286,1.747-.508.644-.015,1.227-.709,1.922-.174.093.075.186.153.277.231C6.1,3.957,6.98,2.749,7.984,1.957Z"/></g></g><g transform="translate(95.424 64.737)"><g transform="translate(0 0)"><path class="l" d="M15.749,3.811c.069-.282.026-.575-.257-.662A15.835,15.835,0,0,0,13,2.506c-1.571-.205-3.156-.287-4.734-.442-1.969-.193-3.937-.407-5.9-.615C1.576,1.365.79,1.274,0,1.187c-.016-.154.025-.254.123-.3S.29.83.317.859a36.968,36.968,0,0,1,7.9-.5c2.244.126,4.5,0,6.739.348.516.08.063-.455.023-.709a5.831,5.831,0,0,1,.92.269,1.987,1.987,0,0,1,.4,3.466C16.182,3.837,15.936,3.789,15.749,3.811Z"/></g></g><g transform="translate(81.658 39.923)"><path class="m" d="M21.107,1.814c-1.791-.019-3.54-.46-5.343-.468A35.92,35.92,0,0,0,3.1,3.546c-.391.144-.767.261-.664.8-.616.012-1.244-.426-1.85.065-.152.123-.375.185-.507,0-.207-.3.016-.485.262-.559.648-.2.827-.756,1.064-1.279A1.14,1.14,0,0,0,2.533,2.5,24.131,24.131,0,0,1,12.04.144C12.7.114,13.353.051,14.01.019a23.819,23.819,0,0,1,6.644.774C21.205.924,21.433,1.262,21.107,1.814Z"/></g><g transform="translate(90.087 18.495)"><g transform="translate(0 0)"><path class="m" d="M0,14.036C.945,12,1.914,9.966,2.823,7.911a6.725,6.725,0,0,0,.964-3.184,1.349,1.349,0,0,1-.035-1c.653-.648.572-1.709,1.3-2.312.451-.3.619-.812.94-1.209A.663.663,0,0,1,6.7.031a.573.573,0,0,1,.445.559,1.559,1.559,0,0,1-.034.764,3.953,3.953,0,0,0-.078,2.076c-.284-.068-.594-.023-.655.265-.4,1.891-1.488,3.527-1.907,5.431A9.979,9.979,0,0,1,2.215,13.5c-.76-.79-.809.533-1.333.45C.6,14.148.347,14.576,0,14.036Z"/></g></g><g transform="translate(68.219 56.789)"><g transform="translate(0 0)"><path class="n" d="M1.922,6.877c-.636.1-1.247.5-1.922.175A6.177,6.177,0,0,1,4.312,3.895a3.06,3.06,0,0,0,1.531-.867,4.072,4.072,0,0,1,1.088-.847A19.553,19.553,0,0,1,14.084.037a40.618,40.618,0,0,1,6.32.2.376.376,0,0,1-.314.428c-.385.092-.773.167-1.162.238-2.662.483-5.324.97-7.988,1.442A26.377,26.377,0,0,0,6.022,3.84,11.183,11.183,0,0,0,1.922,6.877Z"/></g></g><g transform="translate(67.128 12.617)"><path class="o" d="M1.593,3.9a2.151,2.151,0,0,0-.488-2.319c.3-.1.64-.152.69-.567A1.316,1.316,0,0,1,2.128.126.587.587,0,0,1,2.97.24a1.754,1.754,0,0,1,.206.73,21.479,21.479,0,0,0,.139,4.606.421.421,0,0,0-.485.476A34.574,34.574,0,0,1,1.792,12.7a11.287,11.287,0,0,1-.411,1.325.616.616,0,0,1-.835.528c-1.225-1.45.037-3.028-.236-4.528.01-.092.027-.183.037-.274.027-.182.067-.361.11-.539A20,20,0,0,1,1.593,3.9Z"/></g><g transform="translate(88.493 60.15)"><g transform="translate(0 0)"><path class="p" d="M.859,1.715C.537,1.449-.158,1.516.033.792h0A1.791,1.791,0,0,0,.613.774C4.861.243,9.109-.3,13.4.261A.909.909,0,0,0,14.118,0,6.164,6.164,0,0,0,16.1.889c-.036.547-.411.753-.874.872l.023-.006a1.135,1.135,0,0,0-.61,0l-.814.187a73.711,73.711,0,0,0-10.284.18,5.52,5.52,0,0,1-1.97,0,2.149,2.149,0,0,1-.507-.22C.992,1.844.926,1.78.859,1.715Z"/></g></g><g transform="translate(58.229 70.959)"><g transform="translate(0 0)"><path class="q" d="M13.439.041a12.651,12.651,0,0,1-2.884,3.3C8.5,4.451,7.331,6.592,5.339,7.772A.555.555,0,0,1,5.087,8C3.4,8.886,1.94,10.169,0,11.171A1.545,1.545,0,0,1,1.1,9.55l.868-.775c.49.015.667-.572,1.138-.593l.87-.769c1.986-1.174,3.2-3.247,5.17-4.439a6.117,6.117,0,0,1,1.608-1.1c.489-.271,1.069-.584.975-1.331A1.987,1.987,0,0,1,13.439.041Z"/></g></g><g transform="translate(70.645 38.448)"><g transform="translate(0 0)"><path class="r" d="M2.281,5.49c-.3.257-.6.5-.884.774A.812.812,0,0,1,.181,6.32C-.414,5.247.619,4.7.988,3.964,1.424,3.1,2.355,2.584,2.806,1.7c.545-.63.751-1.625,1.815-1.7A3.309,3.309,0,0,0,6,1.372,4.414,4.414,0,0,1,4.074,3.756,8.3,8.3,0,0,0,2.281,5.49Z"/></g></g><g transform="translate(45.787 39.581)"><g transform="translate(0 0)"><path class="s" d="M0,6.578c.581-.713.445-1.618.593-2.429A11.027,11.027,0,0,0,.949.107,1.142,1.142,0,0,1,2.2.287c.386.325.82.63.747,1.235C2.666,1.36,2.513,1,2.039,1a2.783,2.783,0,0,0,.095,2.061,1.205,1.205,0,0,1-.177,1.627A2.157,2.157,0,0,0,1.5,6.162c-.079.711.136,1.477-.377,2.11C.313,8.114.748,7.188.246,6.838L.127,6.7Z"/></g></g><g transform="translate(17.622 102.558)"><g transform="translate(0 0)"><path class="t" d="M6.547,1.69C5.153,1.785,4.14,2.705,3.031,3.378c-.625.38-1.264.717-1.917,1.03a1.139,1.139,0,0,1-.962,0,.2.2,0,0,1-.112-.321,1.637,1.637,0,0,1,.734-.636c1.5-.839,3-1.67,4.487-2.531C5.716.655,6.122.308,6.55,0c.652.323.259.9.334,1.364A.43.43,0,0,1,6.547,1.69Z"/></g></g><g transform="translate(81.324 46.484)"><g transform="translate(0 0)"><path class="u" d="M2.225,0l-.3,1.092c.6.334,1.462-.065,1.9.679A3.6,3.6,0,0,1,.077,3.6,2.334,2.334,0,0,1,.9,1.153Q1.562.575,2.225,0Z"/></g></g><g transform="translate(106.138 40.079)"><g transform="translate(0 0)"><path class="v" d="M0,2.952a1.417,1.417,0,0,1,.824-1C1.729,1.6,2.59,1.139,3.5.787A2.908,2.908,0,0,0,4.808,0c.371.57.422,1.355,1.14,1.691a13.079,13.079,0,0,0-2.836.481A7.2,7.2,0,0,0,1.121,3.234C.681,3.4.254,3.514,0,2.952Z"/></g></g><g transform="translate(103.714 61.039)"><g transform="translate(0)"><path class="w" d="M0,.872.874,0a9.524,9.524,0,0,1,3,.69,2.946,2.946,0,0,1,1.258.877c.476.549-.091.6-.381.782a2.857,2.857,0,0,0-1.71-.834A16.854,16.854,0,0,1,0,.872Z"/></g></g><g transform="translate(81.37 48.18)"><path class="x" d="M.031,1.9A20.426,20.426,0,0,0,3.785.075L4.929.039c.321-.074.655-.074.769.286.079.248-.107.46-.361.565-.344.142-.716.2-1.056.358-.9.305-1.807.614-2.713.911A2.045,2.045,0,0,0,.4,2.745.7.7,0,0,1,.031,1.9Z"/></g><g transform="translate(23.58 99.435)"><g transform="translate(0 0)"><path class="m" d="M.281.028a1.337,1.337,0,0,0,1.48.3c.539.2.89-.451,1.415-.313A1.991,1.991,0,0,1,3.239,1.4a2.283,2.283,0,0,1-1.32,1.087,1.136,1.136,0,0,1-.865.043c-.068-.054-.136-.109-.2-.165-.324-.3-.791-.472-.851-1A.63.63,0,0,0,.062.313.224.224,0,0,1,.142.072Q.253,0,.281.028Z"/></g></g><g transform="translate(19.626 101.088)"><g transform="translate(0 0)"><path class="m" d="M0,2.527A3.719,3.719,0,0,1,3.129,0c.674.14.741.568.532,1.126A15.222,15.222,0,0,0,0,2.527Z"/></g></g><g transform="translate(83.422 9.893)"><g transform="translate(0)"><path class="y" d="M3.778.014C3.766.143,3.8.308,3.734.4,2.688,1.816,1.637,3.23.559,4.625.475,4.734.192,4.69,0,4.716A15.1,15.1,0,0,1,2.968.3C3.277.311,3.444-.077,3.778.014Z"/></g></g><g transform="translate(24.169 103.668)"><g transform="translate(0 0)"><path class="z" d="M0,.58A2.808,2.808,0,0,0,.171.289c.023-.252.156-.34.4-.261a3.274,3.274,0,0,0,2.12.756,2.594,2.594,0,0,1,1.486.278l-1.283.465A2.208,2.208,0,0,1,0,.58Z"/></g></g><g transform="translate(24.172 101.202)"><g transform="translate(0 0)"><path class="aa" d="M.565,2.494l-.4.261q-.084-.7-.167-1.4l.31-.273A3.527,3.527,0,0,0,1.678.41C2.058.3,2.342-.3,2.835.189c.381-.058-.608.847.305.433.074-.033.181.125.221.259-.451.558-1.192.625-1.735,1.028-.316.026-.519.312-.828.354A1.743,1.743,0,0,0,.565,2.494Z"/></g></g><g transform="translate(93.792 19.906)"><g transform="translate(0 0)"><path class="ab" d="M1.35,0A4.263,4.263,0,0,1,.717,2.151c-.125.281-.416.222-.67.162C-.08.562-.041.493,1.35,0Z"/></g></g><g transform="translate(48.917 45.929)"><g transform="translate(0 0)"><path class="ac" d="M1.168.019A8.047,8.047,0,0,1,.428,2.6c-.043.089-.2.125-.381.232A6.136,6.136,0,0,1,.448,0Z"/></g></g><g transform="translate(50.345 59.293)"><path class="ad" d="M.142,1.64C-.129.8-.042.51.664.054c.212-.136.372,0,.412.206a1.691,1.691,0,0,1-.4,1.46A.472.472,0,0,1,.142,1.64Z"/></g><g transform="translate(22.755 100.786)"><g transform="translate(0 0)"><path class="ae" d="M.532,1.427A2.61,2.61,0,0,0,0,.3.874.874,0,0,1,.826.024c.39.239,1.086.218.851.994Z"/></g></g><g transform="translate(94.569 4.664)"><g transform="translate(0)"><path class="af" d="M.054,1.492C.239,1.149.41.8.613.465A.791.791,0,0,1,1.6.047.889.889,0,0,1,1.33.875a5.1,5.1,0,0,0-.5.827L.256,2.27q-.323.085-.238-.238v0C.029,1.853.041,1.672.054,1.492Z"/></g></g><g transform="translate(26.54 77.656)"><g transform="translate(0 0)"><path class="ag" d="M.894.2c.171-.069.393-.24.5-.186.211.106.01.285-.057.429-.134.288-.264.579-.4.868-.382-.131-.65.116-.943.285C.048.967.508.606.894.2Z"/></g></g><g transform="translate(93.7 6.696)"><g transform="translate(0 0)"><path class="ah" d="M.887,0q.121.117.238.239Q1,.965.885,1.693A.85.85,0,0,0,0,1.953,3.694,3.694,0,0,1,.887,0Z"/></g></g><g transform="translate(24.482 101.477)"><g transform="translate(0 0)"><path class="ai" d="M1.332.526A1.088,1.088,0,0,1,0,.808,3.19,3.19,0,0,1,.151.493L.832,0A.463.463,0,0,1,1.332.526Z"/></g></g><g transform="translate(91.827 24.416)"><g transform="translate(0 0)"><path class="m" d="M1,0A1.991,1.991,0,0,1,0,1.346C.021.665.522.341,1,0Z"/></g></g><g transform="translate(84.961 44.397)"><g transform="translate(0 0)"><path class="aj" d="M.853.465A1.272,1.272,0,0,1,0,.725c0-.2,0-.394,0-.592C.716-.089.767-.068.853.465Z"/></g></g><g transform="translate(86.39 9.398)"><g transform="translate(0 0)"><path class="ak" d="M.81.508A.86.86,0,0,1,0,.792L.455.232C.5.2.552.168.6.141.735.073.9-.1,1,.078,1.05.155.881.361.81.508Z"/></g></g><g transform="translate(25.466 79.81)"><g transform="translate(0 0)"><path class="ag" d="M.648,0C.714.528.343.8,0,1.079A1.33,1.33,0,0,1,.648,0Z"/></g></g><g transform="translate(36.366 60.858)"><g transform="translate(0 0)"><path class="b" d="M.312,0A.756.756,0,0,1,.023.832.8.8,0,0,1,.312,0Z"/></g></g><g transform="translate(69.108 71.46)"><g transform="translate(0 0)"><path class="q" d="M.85.039A.775.775,0,0,1,0,.3.791.791,0,0,1,.85.039Z"/></g></g><g transform="translate(95.396 5.54)"><g transform="translate(0 0)"><path class="ah" d="M0,.826A.874.874,0,0,1,.5,0,1.1,1.1,0,0,1,0,.826Z"/></g></g><g transform="translate(41.12 77.612)"><g transform="translate(0)"><path class="al" d="M.782.236C.588.515.358.692,0,.527L.548,0A2.67,2.67,0,0,0,.782.236Z"/></g></g><g transform="translate(62.013 73.84)"><g transform="translate(0 0)"><path class="b" d="M.844.029A.749.749,0,0,1,0,.3.805.805,0,0,1,.844.029Z"/></g></g><g transform="translate(109.069 63.89)"><g transform="translate(0 0)"><path class="w" d="M.8.394A.812.812,0,0,1,0,.018.711.711,0,0,1,.8.394Z"/></g></g><g transform="translate(75.407 25.731)"><g transform="translate(0 0)"><path class="b" d="M.454,0A.753.753,0,0,1,0,.818.894.894,0,0,1,.454,0Z"/></g></g><g transform="translate(68.552 71.71)"><g transform="translate(0 0)"><path class="q" d="M.554.049,0,.123A.509.509,0,0,1,.554.049Z"/></g></g><g transform="translate(33.587 46.401)"><g transform="translate(0 0)"><path class="am" d="M12.446.018c.405-.081.6.115.67.494.059.315.14.627.211.941l-.02-.012a1.205,1.205,0,0,0-.05.575A19.868,19.868,0,0,1,11.838,7.5a3.163,3.163,0,0,0-.138.957l0,.007c-.023.311-.334.508-.327.83-1.123,3.181-2.269,6.354-3.363,9.545a41.215,41.215,0,0,1-4.371,8.876C2.805,28.747,2.4,30.072,1.406,31a1.083,1.083,0,0,1-1.216.195c-.5-.941.112-1.678.52-2.394,1.119-1.959,2.168-3.957,3.275-5.922a26.33,26.33,0,0,0,2.47-6.062,3.574,3.574,0,0,1,1.193-2.238,5.894,5.894,0,0,0,.645-.979c.747-1.823,1.463-3.658,2.18-5.493a12.024,12.024,0,0,0,.593-2.28,23.113,23.113,0,0,1,1.053-4.4q.015-.273.049-.545a2.166,2.166,0,0,1,.208-.285,1.376,1.376,0,0,0,.069-.573Z"/></g></g><g transform="translate(50.631 39.74)"><g transform="translate(0 0)"><path class="m" d="M8.735,3.9a4.243,4.243,0,0,0,.9-1.53A6.426,6.426,0,0,1,11.054,0c.459.117.418.726.853.864a35.306,35.306,0,0,1-1.7,3.528,30.707,30.707,0,0,0-1.55,2.979,52.314,52.314,0,0,1-5.725,9.216c-.32.419-.586.879-.916,1.289A2.086,2.086,0,0,1,0,18.886l.7-1.932C1.34,16.4,2.169,16,2.276,15.012a.229.229,0,0,1,.094-.246c.078-.046.127-.059.146-.038a2.519,2.519,0,0,0,.9-1.407c.545-2.8,3.037-4.607,3.738-7.328a5.262,5.262,0,0,1,.508-.688.508.508,0,0,1,.428-.3C8.435,4.712,8.786,4.421,8.735,3.9Z"/></g></g><g transform="translate(25.259 77.176)"><g transform="translate(0)"><path class="an" d="M2.146,12.814c-.45-.1-.705.217-.987.469A2.017,2.017,0,0,1,0,13.914l.083-1.179A1.634,1.634,0,0,1,.66,11.577c.158-.161.319-.318.481-.474a60.218,60.218,0,0,0,7.14-8.988C8.849,1.3,9.23.16,10.48,0a3.6,3.6,0,0,1-.2.952,56.033,56.033,0,0,1-3.356,6.08A9.341,9.341,0,0,1,5.3,8.768,14.612,14.612,0,0,0,2.146,12.814Z"/></g></g><g transform="translate(26.13 74.114)"><g transform="translate(0 0)"><path class="ao" d="M9.609,3.062c-1,1.377-2.038,2.723-2.978,4.136A33.722,33.722,0,0,1,.3,14.675a.348.348,0,0,1-.268-.5c1.659-2.262,3.2-4.606,4.886-6.853A25.742,25.742,0,0,1,8.5,3.035,6.01,6.01,0,0,0,9.834,1.419,3.929,3.929,0,0,1,11.093,0,12.285,12.285,0,0,1,9.609,3.062Z"/></g></g><g transform="translate(38.836 71.864)"><g transform="translate(0 0)"><path class="ap" d="M0,4.393A23.449,23.449,0,0,1,2.411,0,7.085,7.085,0,0,1,0,4.393Z"/></g></g><g transform="translate(44.933 54.862)"><g transform="translate(0 0)"><path class="c" d="M.024.83A.749.749,0,0,1,.351,0,.771.771,0,0,1,.024.83Z"/></g></g><g transform="translate(49.925 59.182)"><g transform="translate(0 0)"><path class="ad" d="M.066,0,0,.554Z"/></g></g><g transform="translate(26.477 84.91)"><g transform="translate(0 0)"><path class="aq" d="M1.057,17.173a1.394,1.394,0,0,0-.38-.075c-.787.068-.273-.287-.171-.51.061-.3.085-.593-.236-.781a.863.863,0,0,1,.009-1.263,59.9,59.9,0,0,1,5.794-3.012,76.95,76.95,0,0,0,7.414-3.777,11.8,11.8,0,0,0,1.725-1.324,1.333,1.333,0,0,0,.608-.98c-.021-.9.6-1.146,1.282-1.2a5.094,5.094,0,0,0,2.884-1.181,7.56,7.56,0,0,1,1.4-.734L25.977,0c.528.735-.051,1.045-.543,1.357-.772.489-1.552.967-2.352,1.411-.786.476-1.578.945-2.359,1.431a37.322,37.322,0,0,0-3.546,2.494,63.892,63.892,0,0,1-5.307,3.763C8.992,12.3,6.043,14.03,3.143,15.839A14.459,14.459,0,0,0,1.621,17.1l0,.011a3.89,3.89,0,0,0-.536.126Z"/></g></g><g transform="translate(49.559 78.959)"><g transform="translate(0 0)"><path class="ar" d="M0,8.719A5.928,5.928,0,0,1,1.8,7.348c.564-.246,1.136-.616,1.095-1.4,1.359-.9,2.688-1.85,4.091-2.674A10.868,10.868,0,0,0,8.883,1.9a1.2,1.2,0,0,1,.889-.347l-.816.864c.67.243.825-.4,1.229-.569a13.081,13.081,0,0,0,1.176-.674A6.307,6.307,0,0,1,13.756,0,20.6,20.6,0,0,1,9.984,2.854,80.443,80.443,0,0,1,1.813,8.012,3.512,3.512,0,0,1,0,8.719Z"/></g></g><g transform="translate(62.206 73.933)"><g transform="translate(0)"><path class="ar" d="M5.17,0q-2,1.919-3.991,3.837C.847,4.156.532,4.51,0,4.44Q1.926,2.6,3.854.769C4.231.411,4.57-.019,5.17,0Z"/></g></g><g transform="translate(60.198 79.132)"><g transform="translate(0)"><path class="ar" d="M1.138.009C.824.332.544.721,0,.6.313.278.619-.061,1.138.009Z"/></g></g><g transform="translate(75.738 61.619)"><g transform="translate(0 0)"><path class="c" d="M14.187.227A22.33,22.33,0,0,0,18.731.053c2.255-.1,4.5-.037,6.75.033a1.5,1.5,0,0,1,1.093.391,9.1,9.1,0,0,1-2.937.359,64.371,64.371,0,0,0-8.311.512C10.312,1.723,5.355,2.57.382,3.282A1.194,1.194,0,0,1,0,3.207,4.26,4.26,0,0,1,2.726,1.844C5.963,1.26,9.229.93,12.492.564A2.15,2.15,0,0,0,13.613.246L13.6.225A2.676,2.676,0,0,1,14.187.227Z"/></g></g><g transform="translate(93.254 65.454)"><g transform="translate(0 0)"><path class="as" d="M2.487.141,2.174.469A3.6,3.6,0,0,1,0,.332,3.5,3.5,0,0,1,2.487.141Z"/></g></g><g transform="translate(103.127 61.82)"><g transform="translate(0 0)"><path class="w" d="M0,.088a.583.583,0,0,1,.609,0A.588.588,0,0,1,0,.088Z"/></g></g><g transform="translate(63.568 74.281)"><g transform="translate(0 0)"><path class="ar" d="M0,4.451Q2.009,2.519,4.018.586c.335-.322.661-.67,1.2-.568q-2.094,1.953-4.19,3.9A1.558,1.558,0,0,1,0,4.451Z"/></g></g><g transform="translate(24.971 103.096)"><g transform="translate(0 0)"><path class="z" d="M0,.369A.818.818,0,0,1,.828.015.859.859,0,0,1,0,.369Z"/></g></g><g transform="translate(27.557 101.972)"><g transform="translate(0 0)"><path class="c" d="M0,.169A.432.432,0,0,1,.536.044.448.448,0,0,1,0,.169Z"/></g></g><g transform="translate(16.321 102.368)"><g transform="translate(0 0)"><path class="at" d="M.5.011,1.582,0A2.132,2.132,0,0,1,0,.839.991.991,0,0,1,.5.011Z"/></g></g><g transform="translate(26.887 79.232)"><g transform="translate(0 0)"><path class="ag" d="M.336,0A.808.808,0,0,1,.025.837.827.827,0,0,1,.336,0Z"/></g></g><g transform="translate(23.073 99.669)"><g transform="translate(0 0)"><path class="m" d="M0,.118A.471.471,0,0,1,.569.076.549.549,0,0,1,0,.118Z"/></g></g><g transform="translate(61.685 31.944)"><g transform="translate(0 0)"><path class="au" d="M.853,8.661c-.615.287-.614.287-.729-.285C.086,8.182.042,7.99,0,7.8c.084-.288.166-.576.25-.864A22.241,22.241,0,0,1,2.709,1.869q.329-.488.637-.992a2.507,2.507,0,0,1,.605-.66c.361-.178.73-.422,1.032.088h0c-.014.312-.331.516-.3.844l0-.006c-.013.313-.328.508-.323.828A15.653,15.653,0,0,1,1.507,7.523c-.08.464-.7.62-.663,1.15Z"/></g></g><g transform="translate(65.531 26.646)"><g transform="translate(0 0)"><path class="av" d="M1.137,5.6a.911.911,0,0,0-.886.264c-.657-.7.178-1.207.23-1.817C1.189,2.86.65,1.159,2.034.246A.885.885,0,0,0,2.978,0,12.811,12.811,0,0,1,1.137,5.6Z"/></g></g><g transform="translate(62.505 39.466)"><g transform="translate(0 0)"><path class="m" d="M.025,1.15C-.109.563.323.3.687,0A1.528,1.528,0,0,1,.025,1.15Z"/></g></g><g transform="translate(66.327 32.248)"><g transform="translate(0 0)"><path class="av" d="M.036.844A.764.764,0,0,1,.339,0,.828.828,0,0,1,.036.844Z"/></g></g><g transform="translate(66.016 33.087)"><g transform="translate(0 0)"><path class="av" d="M.025.828A.79.79,0,0,1,.348,0,.8.8,0,0,1,.025.828Z"/></g></g><g transform="translate(90.346 30.648)"><g transform="translate(0 0)"><path class="aw" d="M.6,1.6,1.93,0c.4.474-.141.912.026,1.349C1.87,2.524.979,3.28.445,4.221a.335.335,0,0,1-.324.063.35.35,0,0,1-.11-.322c.235-.459.5-.9.758-1.348.1-.166.2-.325.285-.5a.194.194,0,0,0-.059-.169C.951,1.91.873,1.911.81,1.9.575,1.912.513,1.808.6,1.6Z"/></g></g><g transform="translate(87.657 33.34)"><g transform="translate(0 0)"><path class="ax" d="M2.721.04a1.046,1.046,0,0,1-.087.373c-.678.938-1.369,1.867-2.055,2.8A.425.425,0,0,1,0,3.406C.622,2.356,1.134,1.277,1.815.288,2.16.363,2.346-.143,2.721.04Z"/></g></g><g transform="translate(89.472 32.245)"><g transform="translate(0 0)"><path class="ay" d="M.907,1.136C.627,1.3.362,1.519,0,1.384L.615.286A.945.945,0,0,0,1.474,0c.067.1.137.2.21.3Z"/></g></g><g transform="translate(85.65 42.701)"><g transform="translate(0 0)"><path class="az" d="M0,6.726c.267-.17.53-.351.8-.511.456-.266.456-.275-.156-.7A20.293,20.293,0,0,1,5.4,3.6c3.377-.959,6.787-1.766,10.216-2.5,1.419-.3,2.87-.456,4.307-.677a1.4,1.4,0,0,1,.562-.086l0,0A1.21,1.21,0,0,0,21.6.3a.862.862,0,0,1,1.328.018c.149.306.175.576-.209.728a10.256,10.256,0,0,1-3.366,1.095C14.175,2.8,9.191,4.316,4.151,5.588c-.506.128-.979.388-1.477.554A5.992,5.992,0,0,1,0,6.726Z"/></g></g><g transform="translate(108.373 42.745)"><g transform="translate(0 0)"><path class="ba" d="M0,1.005C0,.772.007.539.011.306c.2-.4.524-.323.856-.24.448-.019.9-.05,1.344-.045.089,0,.217.127.256.224.056.139-.045.23-.205.264C1.507.671.754.839,0,1.005Z"/></g></g><g transform="translate(107.254 42.143)"><g transform="translate(0 0)"><path class="bb" d="M1.985.668,1.13.908,0,.861C.057.694.067.429.179.376A2.2,2.2,0,0,1,2,.107C1.992.294,1.989.481,1.985.668Z"/></g></g><g transform="translate(88.565 5.807)"><g transform="translate(0 0)"><path class="bc" d="M4.615.012C3.8,2.917,2.216,5.46.825,8.094a1.639,1.639,0,0,1-.353.174A.5.5,0,0,1,.1,8.244.369.369,0,0,1,.015,7.9C.2,7.554.45,7.242.621,6.89A1.133,1.133,0,0,0,.589,5.584a1.269,1.269,0,0,1,.183-1.8c.887-.9,1.609-1.916,2.4-2.888C3.521.465,3.892-.091,4.615.012Z"/></g></g><g transform="translate(77.505 23.61)"><g transform="translate(0 0)"><path class="n" d="M5.655,0C4.414,1.872,3.181,3.749,1.926,5.611a12.386,12.386,0,0,1-.893,1.059,6.389,6.389,0,0,0-.649-.433c-.448-.231-.47-.5-.239-.937A12.931,12.931,0,0,1,2.812,2.2C3.634,1.3,4.124-.024,5.655,0Z"/></g></g><g transform="translate(80.314 17.232)"><path class="bd" d="M2.846,6.379a1.2,1.2,0,0,0-1.011.464Q.921,7.71,0,8.574A1.248,1.248,0,0,1,.51,7.561q.927-.883,1.849-1.769C2.969,5.2,3.681,4.68,3.708,3.713,4.76,2.49,5.349.873,6.844.032c.1-.057.255-.019.384-.024A53.117,53.117,0,0,1,2.846,6.379Z"/></g><g transform="translate(26.823 57.696)"><g transform="translate(0 0)"><path class="f" d="M0,27.44l.264-.271c-.011-.321.331-.511.311-.836a7.042,7.042,0,0,0,.474-.863A119.968,119.968,0,0,1,8.533,10.147c1.7-3.048,3.7-5.929,5.613-8.858C14.427.86,14.508.278,15.023,0c0,1.153-.045,1.282-.92,2.973a44.743,44.743,0,0,1-3.939,10.059c-2.485,4.639-4.773,9.4-8.2,13.47C1.463,27.1,1.135,28.139,0,27.44Z"/></g></g><g transform="translate(26.197 60.669)"><g transform="translate(0 0)"><path class="bd" d="M.626,24.467c.64.106.99-.343,1.28-.765,1.782-2.6,3.768-5.052,5.354-7.781A94.76,94.76,0,0,0,12.1,6.656a10.482,10.482,0,0,0,.233-1.146,7,7,0,0,1,1.315-2.986A8.328,8.328,0,0,0,14.729,0l.308.307a37.086,37.086,0,0,1-3.18,8.459c-1.3,2.206-2.488,4.483-3.717,6.733-.22.4-.4.829-.595,1.243-1.169,3.046-3.524,5.286-5.376,7.866-.5.7-.7,1.773-1.859,1.828-.239.007-.37-.091-.283-.34C.219,25.55.425,25.009.626,24.467Z"/></g></g><g transform="translate(24.785 77.148)"><g transform="translate(0 0)"><path class="be" d="M1.722,9.957c.683-.871,1.381-1.73,2.045-2.615A67.021,67.021,0,0,0,8.682.541,1.507,1.507,0,0,1,8.957.263.931.931,0,0,0,9.848,0C9.8.191,9.815.437,9.7.562A54.1,54.1,0,0,0,6.307,5.2,46.266,46.266,0,0,0,3.19,9.531a10.848,10.848,0,0,1-1.782,1.861,2.209,2.209,0,0,1-.1.518l-.749.852c-.117.058-.238.169-.351.162-.273-.016-.231-.189-.121-.362A5.814,5.814,0,0,1,1.19,10.957,1.187,1.187,0,0,0,1.722,9.957Z"/></g></g><g transform="translate(27.061 84.029)"><g transform="translate(0 0)"><path class="bd" d="M.337,0A.823.823,0,0,1,.026.836.817.817,0,0,1,.337,0Z"/></g></g><g transform="translate(45.963 46.42)"><g transform="translate(0 0)"><path class="s" d="M.068,0,0,.573Z"/></g></g><g transform="translate(45.706 47.278)"><g transform="translate(0 0)"><path class="s" d="M.049,0,0,.545Z"/></g></g><g transform="translate(72.222 37.532)"><g transform="translate(0 0)"><path class="bf" d="M3.044.916c-.558.558-.752,1.387-1.407,1.872-.355.512-.609,1.168-1.437,1C-.283,2.81.165,2.161.958,1.635L1.618.523C2.353.855,2.868.456,3.367,0A1.262,1.262,0,0,1,3.044.916Z"/></g></g><g transform="translate(53.7 44.709)"><path class="bg" d="M4.7.852C3.709,3.313,2.107,5.436.862,7.757a3.475,3.475,0,0,1-.515.6C-.48,5.7.378,3.166.789.594c.464.046.388.36.419.6.093.72.17,1.442.265,2.161.046.357.2.635.615.634s.513-.353.628-.655a3.068,3.068,0,0,0,.14-.575C3,1.914,3.133,1.068,3.268.241,3.852-.183,4.456.094,5.02.037a3.027,3.027,0,0,1-.212.274C4.773.492,4.737.672,4.7.852Z"/></g><g transform="translate(51.881 53.121)"><path class="bc" d="M1.266,1.347q-.113.147-.24.284c-.267.171-.438.5-.872.506A3.638,3.638,0,0,1,.1.257.353.353,0,0,1,.321,0,.56.56,0,0,1,.66.151,1.95,1.95,0,0,1,1.266,1.347Z"/></g><g transform="translate(70.418 62.899)"><g transform="translate(0 0)"><path class="aq" d="M3.413,0a.686.686,0,0,1-.262.7c-.309.235-.684.358-.885.756a1.031,1.031,0,0,1-1.09.684A1.269,1.269,0,0,1,0,1,5.445,5.445,0,0,1,2.564.226,2.123,2.123,0,0,0,3.133.192,1.068,1.068,0,0,1,3.413,0Z"/></g></g><g transform="translate(81.442 60.69)"><g transform="translate(0)"><path class="bh" d="M4.54.5A24.717,24.717,0,0,1,.018.9C-.025.7,0,.449.188.4A8.92,8.92,0,0,1,4.442.155C4.5.166,4.508.38,4.54.5Z"/></g></g><g transform="translate(88.525 60.923)"><g transform="translate(0 0)"><path class="k" d="M.581,0,0,.019Z"/></g></g><g transform="translate(72.982 63.091)"><g transform="translate(0 0)"><path class="k" d="M.569,0,0,.035Z"/></g></g><g transform="translate(46.784 47.842)"><g transform="translate(0 0)"><path class="s" d="M.058.575A.55.55,0,0,1,.108,0,.549.549,0,0,1,.058.575Z"/></g></g><g transform="translate(75.252 34.717)"><g transform="translate(0 0)"><path class="b" d="M.008.808A.832.832,0,0,1,.389,0,.751.751,0,0,1,.008.808Z"/></g></g><g transform="translate(94.588 6.156)"><g transform="translate(0 0)"><path class="ah" d="M.036,0C.024.181.012.361,0,.542.012.361.024.181.036,0Z"/></g></g><g transform="translate(61.859 16.517)"><g transform="translate(0 0)"><path class="b" d="M4.568,14.32a.994.994,0,0,1-.317.841A.978.978,0,0,0,3.924,16l-.537.566c-.021.313-.342.5-.341.823A45.81,45.81,0,0,1,.077,22.359a1.943,1.943,0,0,1-.067-.585,40.893,40.893,0,0,1,1.646-7.3c.144-.361.274-.905.545-1.008.931-.351.838-1.087.851-1.8A44.523,44.523,0,0,1,4.577,2.73C4.807,1.7,5.173.682,6.416.382c.17-.041.3-.251.447-.382.273.61-.1,1.158-.174,1.733-.171,1.3-.381,2.586-.576,3.879-.179.023-.257.119-.218.3l0-.028C5.51,8.7,4.667,11.453,4.568,14.32Z"/></g></g><g transform="translate(70.274 39.151)"><g transform="translate(0)"><path class="bi" d="M2.906.017Q2.5.993,2.094,1.968C1.713,3.181,1.385,4.431.049,5a3.1,3.1,0,0,1-.01-.943A14.682,14.682,0,0,1,1.8.639,1.073,1.073,0,0,1,2.906.017Z"/></g></g><g transform="translate(69.526 40.319)"><g transform="translate(0 0)"><path class="bj" d="M.8,3.833a3.673,3.673,0,0,0,1.09-1.347C2.154,1.9,2.52,1.36,2.842.8c.73.168.988-.542,1.489-.8a1.591,1.591,0,0,1-.7,1.136,17.826,17.826,0,0,0-2.272,2.93c-.068.091-.041.253-.059.382-.3.244-.593.5-.91.721-.058.04-.256-.035-.318-.114a.371.371,0,0,1-.046-.343C.264,4.4.536,4.123.8,3.833Z"/></g></g><g transform="translate(105.574 42.987)"><g transform="translate(0 0)"><path class="v" d="M.562.046,0,.131A.52.52,0,0,1,.562.046Z"/></g></g><g transform="translate(65.999 22.4)"><g transform="translate(0 0)"><path class="bk" d="M.428,8.436c-.368.041-.454-.2-.421-.48.1-.84.17-1.687.341-2.514C.7,3.722,1.114,2.013,1.515.3c.027-.114.16-.2.243-.3a6.882,6.882,0,0,1-.076,2.735,5.184,5.184,0,0,0-.118,1.756,4.123,4.123,0,0,0-.45,1.689C.926,6.943.661,7.686.428,8.436Z"/></g></g><g transform="translate(67.754 22.112)"><g transform="translate(0 0)"><path class="bk" d="M0,.316A2.713,2.713,0,0,1,.044,0,.968.968,0,0,1,.219.016,1,1,0,0,1,0,.316Z"/></g></g><g transform="translate(89.339 61.844)"><path class="k" d="M.587,0,0,0Z"/></g><g transform="translate(25.313 100.717)"><g transform="translate(0 0)"><path class="c" d="M1.433,0c.064.01.127.024.192.028.183.015.492-.028.527.052.124.282-.178.4-.333.578A1.288,1.288,0,0,1,1.67.781C1.142.63.851,1.026.5,1.286L0,.76Z"/></g></g><g transform="translate(58.4 45.02)"><g transform="translate(0 0)"><path class="g" d="M0,.541C.036.361.072.181.108,0A.514.514,0,0,1,0,.541Z"/></g></g><g transform="translate(26.091 88.54)"><g transform="translate(0 0)"><path class="b" d="M0,.519Q.05.259.1,0C.179.084.258.166.337.248Z"/></g></g><g transform="translate(64.889 33.079)"><g transform="translate(0 0)"><path class="av" d="M.015.823A.826.826,0,0,1,.356,0,.822.822,0,0,1,.015.823Z"/></g></g><g transform="translate(88.995 60.978)"><g transform="translate(0 0)"><path class="bl" d="M.03,0H.006L0,0Z"/></g></g><g transform="translate(0 0)"><g transform="translate(0 0)"><path class="bl" d="M108.546,69.123c.979.114,1.967.153,2.949.239a2.658,2.658,0,0,0,1.558-.258,1.346,1.346,0,0,0,.315-2.256,6.733,6.733,0,0,1-1.345-1.262,14.207,14.207,0,0,0-3.574-3.179c-.24-.157-.459-.347-.688-.52a36.136,36.136,0,0,0-7.261-4.15,23.3,23.3,0,0,0-7.933-1.6,40.806,40.806,0,0,0-8.957.654c-1.257.189-2.5.484-3.738.779s-2.462.653-3.693.979a23.378,23.378,0,0,0-4.735,1.743,31.785,31.785,0,0,0-4.917,3.273,5.725,5.725,0,0,0-.962.939,1.289,1.289,0,0,1-.916.543c-1.348.144-2.693.324-4.044.431a10.366,10.366,0,0,1-1.718-.1.824.824,0,0,1-.743-.713,1.565,1.565,0,0,1,.071-1.08,4.257,4.257,0,0,1,1.169-1.571C60.5,61.1,61.435,60,62.488,59.022c1.536-1.426,3.07-2.854,4.652-4.227.927-.8,1.958-1.488,2.912-2.262a1.31,1.31,0,0,1,1.01-.3,11.7,11.7,0,0,0,3.793-.311c1.23-.33,2.447-.705,3.673-1.052a6.819,6.819,0,0,1,.684-.125,2.2,2.2,0,0,1,.316.285,4.856,4.856,0,0,0,3.477,1.874,10.647,10.647,0,0,0,3.191-.129,76.955,76.955,0,0,0,12-2.791,51.132,51.132,0,0,1,5.118-1.371c1.4-.294,2.794-.678,4.174-1.074,1.025-.294,2.032-.653,3.034-1.019.925-.337,1.845-.694,2.744-1.093a2.807,2.807,0,0,0,1.415-1.485,1.064,1.064,0,0,0-.21-1.352c-1.017-.892-2.017-1.813-3.1-2.616a13.452,13.452,0,0,0-4.955-2.122,13.111,13.111,0,0,0-4.028-.418,4.718,4.718,0,0,0-1.182.269.323.323,0,0,0-.155.125,4.554,4.554,0,0,0-1.344.778,8.191,8.191,0,0,0-1.239-.246,27.916,27.916,0,0,0-5.412-.062c-.983.077-1.963.181-2.945.253a4.945,4.945,0,0,1-1.566.1,4,4,0,0,1,1.308-.835,10.874,10.874,0,0,0,5.086-5.169A19.576,19.576,0,0,0,96.8,24.916c.073-1.145.16-2.29.236-3.435a10.622,10.622,0,0,0-.069-1.837,1.68,1.68,0,0,0-.68-1.136.793.793,0,0,0-.918-.125,1.662,1.662,0,0,0-1.08,1.39,2.08,2.08,0,0,1-.576,1.314c-.688.87-1.394,1.726-2.066,2.608a29.591,29.591,0,0,0-3.735,6.075,27.286,27.286,0,0,0-2.046,6.051,2.908,2.908,0,0,1-.805,1.638,2.534,2.534,0,0,0-.845,1.173,1.363,1.363,0,0,1-.367.488,54.1,54.1,0,0,1-6,5.475,3.171,3.171,0,0,1-.528.309,23.688,23.688,0,0,0-6.005,4.042c-.089.089-.256.1-.493.184a6.211,6.211,0,0,1,.45-2.31,1.713,1.713,0,0,0,1.48-.931A15.225,15.225,0,0,1,75.093,43.2a51.486,51.486,0,0,0,6.068-6.794c.9-1.17,1.68-2.434,2.506-3.661a6.425,6.425,0,0,0,.349-.652c1.136-2.181,2.086-4.459,3.424-6.537.511-.794.942-1.64,1.466-2.424,1.734-2.595,3.453-5.2,5.074-7.866a4.079,4.079,0,0,0,.69-3.383,2.361,2.361,0,0,1,.227-1.793c.27-.507.522-1.024.784-1.536a12.632,12.632,0,0,0,1.553-5.773A4.925,4.925,0,0,0,96.61.554.928.928,0,0,0,95.6.01c-.608.075-1.219.132-1.821.242a2.166,2.166,0,0,0-.788.321,8.732,8.732,0,0,0-1.062.838,57.94,57.94,0,0,0-5.141,5.3c-1.114,1.318-2.252,2.622-3.26,4.019-1.153,1.6-2.221,3.262-3.236,4.951-1.354,2.253-2.639,4.548-3.919,6.844-.82,1.47-1.614,2.958-2.354,4.469a40.631,40.631,0,0,0-2,5.036,19.826,19.826,0,0,0-.67,1.978c-.264,1.2-.48,2.417-.641,3.637a31.279,31.279,0,0,0-.251,5.04,16.718,16.718,0,0,1-.188,3.439,29,29,0,0,1-1.066,3.79,4.023,4.023,0,0,1-.99,1.683c-.8.773-1.561,1.579-2.377,2.329-1.089,1-2.232,1.941-3.32,2.941a23.966,23.966,0,0,0-3.562,3.744C58.244,61.62,57.5,62.6,56.775,63.6c-.265.367-.49.782-.986.868a2.237,2.237,0,0,0-1.514,1.174,7.143,7.143,0,0,1-3.112,2.527c-.252.132-.53.25-.806.007A1.547,1.547,0,0,1,50.582,67a10.232,10.232,0,0,0,1.1-3.253,6.452,6.452,0,0,1,.373-1.2,1.966,1.966,0,0,1,.306-.182A11.369,11.369,0,0,0,56.8,59.585c.478-.451.951-.912,1.46-1.325a20.331,20.331,0,0,0,5.334-7.3c.747-1.554,1.374-3.169,2.159-4.7a46.429,46.429,0,0,0,2.7-6.476c.429-1.286.89-2.562,1.266-3.863.273-.945.435-1.922.64-2.886.23-1.084.463-2.167.672-3.255.117-.6.143-1.229.286-1.826a15.487,15.487,0,0,0,.326-4.043c-.024-.859-.054-1.72-.085-2.577a18.179,18.179,0,0,0-1.012-4.806,15.929,15.929,0,0,1-.451-1.658A7.529,7.529,0,0,0,69,12.009a8.339,8.339,0,0,1-.727-1.421c-.348-.8-.791-.965-1.508-.481a2.254,2.254,0,0,0-.544.493,11.617,11.617,0,0,0-2.1,3.876,17.954,17.954,0,0,1-.543,1.766,11.5,11.5,0,0,0-.615,3.629c-.019.41-.009.822,0,1.233a16.042,16.042,0,0,1-1.745,7.113,3.66,3.66,0,0,1-.458.728c-.735.935-1.467,1.874-2.23,2.786-1.317,1.575-2.663,3.127-3.982,4.7a15.151,15.151,0,0,0-1.424,1.853c-1.377,2.286-2.7,4.6-4.052,6.908-.089.152-.1.406-.435.36-.033-.358-.051-.724-.1-1.086a11.64,11.64,0,0,0-.325-1.941,4.625,4.625,0,0,0-2.415-3.1,1.064,1.064,0,0,0-1.148.022,3.665,3.665,0,0,0-1.4,1.528,28.529,28.529,0,0,0-2.162,6.665c-.185,1.01-.278,2.041-.532,3.032-.285,1.111-.7,2.187-1.067,3.278A41.066,41.066,0,0,1,35.9,61.915a47.834,47.834,0,0,1-3.477,5.664,2.48,2.48,0,0,0-.182.321c-.527.929-1.007,1.887-1.591,2.777-1.26,1.922-2.529,3.841-3.874,5.7-1.539,2.131-3.092,4.248-4.416,6.523a9.818,9.818,0,0,0-1.254,2.528,2.209,2.209,0,0,0-.077.459c-.011.024-.02.044-.024.056A13.609,13.609,0,0,0,20.52,87.5a4.481,4.481,0,0,0-.062,2.442.212.212,0,0,0,.035.063A4.71,4.71,0,0,0,21,91.482a3.658,3.658,0,0,1,.6,1.4c-.287.364-.572.763-.9,1.129-1.416,1.6-2.844,3.186-4.265,4.78A20.626,20.626,0,0,0,14.174,102a4.056,4.056,0,0,0-.678,2.571,1.156,1.156,0,0,1-.392.989c-.2.2-.4.416-.605.615-.713.682-1.483,1.312-2.133,2.048-1.223,1.384-2.389,2.82-3.559,4.249a53.149,53.149,0,0,0-4.466,6.345A40.872,40.872,0,0,0,0,123.442a3.839,3.839,0,0,0,.5.57c.433.332.733.344,1.1.019.067.1.119.227.184.323a1.244,1.244,0,0,0,.356.343l.011.006c.045.155.221.26.511.282.79.062,1.015-.095,1.3-.818s.6-1.437.914-2.15c.215-.489.483-.955.674-1.453a27.211,27.211,0,0,1,1.76-3.662,37.133,37.133,0,0,1,2.825-4.764,5.8,5.8,0,0,0,.755-1.41,2.453,2.453,0,0,1,1.138-1.243,9.8,9.8,0,0,0,1.362-.838c1.787-1.448,3.539-2.94,5.327-4.385a17.9,17.9,0,0,1,2.11-1.483.9.9,0,0,1,1.4.246,4.613,4.613,0,0,0,2.088,1.462c.269.092.506.277.775.374a6.159,6.159,0,0,0,1.4.43A17.883,17.883,0,0,0,35.908,104c.748-.339,1.509-.653,2.271-.961a30.294,30.294,0,0,0,6.595-3.572q4.972-3.641,9.965-7.255c.731-.529,1.517-.982,2.247-1.512,1.861-1.351,3.7-2.727,5.555-4.09,1.157-.852,2.353-1.656,3.471-2.555,1.6-1.287,3.153-2.635,4.71-3.974a12.5,12.5,0,0,0,1.313-1.3c.993-1.15,2-2.29,2.911-3.506a18.341,18.341,0,0,0,1.463-2.554,2.008,2.008,0,0,0,.192-.958c-.049-1.606-.644-2.532-2.55-2.271-.123.016-.242.047-.363.071a18.1,18.1,0,0,0-3.54,1.018c-3.9,1.639-7.9,3.025-11.676,4.965-2.885,1.483-5.825,2.855-8.617,4.523-1.513.9-3.111,1.674-4.705,2.432-3.115,1.481-6.254,2.914-9.384,4.364q-1.224.566-2.453,1.124a11.041,11.041,0,0,0,3.106-2.61c.428-.126.666-.5.964-.821.869-.93,1.748-1.852,2.654-2.745.5-.489,1.078-.89,1.583-1.37q2.635-2.507,5.24-5.044c2.861-2.782,5.9-5.366,8.984-7.889.317-.26.672-.472,1.012-.7a1.138,1.138,0,0,1,1.054-.179,2.977,2.977,0,0,0,1.218.038,18.8,18.8,0,0,1,3.559-.139c.889.124,1.8.1,2.824.153a5.734,5.734,0,0,0,3.94,1.1c1.559-.072,3.119-.117,4.678-.2a4.92,4.92,0,0,1,1.815.261,32.277,32.277,0,0,0,5.878,1.352,30.189,30.189,0,0,0,3.441.157c.9.009,1.8-.088,2.7-.1,5.095-.057,10.19-.093,15.284-.156A41.144,41.144,0,0,1,108.546,69.123ZM90.825,39.044c1.717-.146,3.426-.325,5.156-.321a12.246,12.246,0,0,1,5.927,1.377c.359.192.74.365.863.9a1.915,1.915,0,0,1-.549.139,13.419,13.419,0,0,1-1.346-.146c-1.215-.187-2.424-.424-3.643-.578a17.793,17.793,0,0,0-9.4,1.28c-.526.225-1.015.535-1.528.792a6.934,6.934,0,0,1-2.585.958,1.507,1.507,0,0,1,.324-1.7,6.291,6.291,0,0,1,3.033-2.015A20.946,20.946,0,0,1,90.825,39.044Zm3.459,4.948a1.656,1.656,0,0,0-.373-.183,8.238,8.238,0,0,1-2.352-1.043,2.11,2.11,0,0,1-.989-1.322c.08-.077.129-.168.194-.182.761-.162,1.523-.329,2.29-.46a8.082,8.082,0,0,1,.984-.04,2.027,2.027,0,0,1,1.136.341,9.333,9.333,0,0,0,4.383,1.456c.185-.212.107-.4-.117-.469a4.309,4.309,0,0,0-.73-.089,5.094,5.094,0,0,1-2.467-.985c.083-.284.319-.2.493-.174.854.121,1.707.247,2.554.4.928.167,1.85.363,2.772.558a2.515,2.515,0,0,1,.458.2.715.715,0,0,1-.48.785,11.474,11.474,0,0,1-1.965.692,32.645,32.645,0,0,0-4.081.893,15.655,15.655,0,0,1-3.527.394c-.649.071-1.3.175-1.94.28-.809.132-1.611.344-2.424.407a5.256,5.256,0,0,1-3.425-.739,5.591,5.591,0,0,1-.656-.664c2.093-.8,3.73-2.114,5.8-2.532a4.166,4.166,0,0,1,.332.391,6.243,6.243,0,0,0,3.632,2.371C93.979,44.341,94.2,44.357,94.284,43.992ZM82.937,43.6a3.122,3.122,0,0,1-1.364.528c-.2.048-.445.053-.51-.191a.506.506,0,0,1,.145-.42c.485-.429,1-.831,1.687-1.4C82.914,42.782,82.925,43.182,82.937,43.6Zm11.855-23.89a4.184,4.184,0,0,1,.5-.473.559.559,0,0,1,.909.248,3.847,3.847,0,0,1,.236,1.071,5.883,5.883,0,0,1-.074,1.1,26.341,26.341,0,0,0-.231,3.191,14.482,14.482,0,0,1-.3,2.691,17.534,17.534,0,0,1-2.132,6,9.414,9.414,0,0,1-4.045,3.671c-.555.265-1.091.572-1.619.889a4.506,4.506,0,0,1-2.645.619,1.243,1.243,0,0,1,.876-1.1,11.006,11.006,0,0,1,1.288-.422,4.9,4.9,0,0,0,2.828-2.054,7.428,7.428,0,0,1,.838-1.06,10.824,10.824,0,0,0,2.266-3.776,16.693,16.693,0,0,0,.924-3.7c.188-1.217.394-2.432.588-3.648.058-.364.119-.73.152-1.1A3.58,3.58,0,0,0,94.792,19.713Zm-5.286,8.335a32.221,32.221,0,0,1,4.71-6.518.622.622,0,0,1,.232.762c-.293,1.866-.562,3.737-.914,5.593a15.743,15.743,0,0,1-1.662,4.359,5.34,5.34,0,0,1-.592.785c-.587.739-1.2,1.461-1.762,2.218a5,5,0,0,1-3.148,1.678A25.223,25.223,0,0,1,89.506,28.048Zm-14.6,19.713c1.667-.883,3.272-1.886,4.9-2.846a1.119,1.119,0,0,1,.919-.234,2.549,2.549,0,0,0,1.567-.154,8.2,8.2,0,0,1,.833-.2,8.912,8.912,0,0,1,.829.572,5.2,5.2,0,0,0,3.708,1.051,24.793,24.793,0,0,0,2.926-.416c.729-.1,1.459-.206,2.192-.286a22.436,22.436,0,0,0,2.933-.312c1.4-.347,2.807-.6,4.23-.812a7.611,7.611,0,0,0,2.45-.794,2.709,2.709,0,0,0,1.2-1.354,1.083,1.083,0,0,0-.06-1.169,2.958,2.958,0,0,0-.725-.811,14.252,14.252,0,0,0-2.5-1.2,4.834,4.834,0,0,1,.6-.386c.265-.141.554-.229.829-.347a3.328,3.328,0,0,1,.595-.107,13.737,13.737,0,0,1,2.947.1,14.672,14.672,0,0,1,8.453,4.466,1.147,1.147,0,0,1,.048,1.834,3.312,3.312,0,0,1-.966.748,23.7,23.7,0,0,1-2.275.936c-.967.347-1.949.651-2.928.959-.586.185-1.174.371-1.771.511-2.559.6-5.132,1.136-7.639,1.955-1.716.562-3.468,1.014-5.211,1.493A69.721,69.721,0,0,1,85,52.454a6.374,6.374,0,0,1-2.925-.256,3.94,3.94,0,0,1-1.7-.962.672.672,0,0,1-.239-.793,8.033,8.033,0,0,1,2.308-.713c.808-.277,1.649-.456,2.48-.679a3.631,3.631,0,0,0,3.182,1.11c1.024-.062,2.054-.014,3.082-.024a11.915,11.915,0,0,0,1.228-.065c.132-.015.25-.148.518-.316a2.488,2.488,0,0,0-.578-.175c-1.437.03-2.875.076-4.312.111a6.025,6.025,0,0,1-.984-.024,1.718,1.718,0,0,1-1.388-.8,3.332,3.332,0,0,1,.673-.342c2.16-.5,4.234-1.322,6.438-1.648a6.173,6.173,0,0,0,1.083-.236c.459-.157.595.408.981.386a1.941,1.941,0,0,1,.368.033c.489.065.978.128,1.466.2a15.307,15.307,0,0,0,4.539-.136c.516-.078,1.035-.145,1.632-.229a1.549,1.549,0,0,0-.223-.493.712.712,0,0,0-.448-.115.923.923,0,0,0-.353.1,10.355,10.355,0,0,1-4.13.484,5.02,5.02,0,0,1-.613-.059,6.866,6.866,0,0,1-.73-.118c-.17-.041-.416.06-.492-.212a.714.714,0,0,1,.217-.11,40.817,40.817,0,0,0,5.9-1.252c1.433-.334,2.82-.871,4.23-1.306.187-.058.452-.14.582-.056.442.285.958.186,1.421.343.287.1.674.318.912-.014.3-.42-.446-.383-.4-.752a1.87,1.87,0,0,1,1.18-.19,4.1,4.1,0,0,0,.858.012c.127-.015.236-.165.461-.334a2.843,2.843,0,0,0-.562-.178,12.761,12.761,0,0,0-4.963.752c-.386.136-.771.284-1.165.393-1.94.533-3.877,1.078-5.827,1.571-.831.21-1.689.32-2.539.447-.771.115-1.554.156-2.321.291a55.82,55.82,0,0,0-6.088,1.547c-.944.279-1.881.584-2.829.85q-2.015.565-4.043,1.086a3.991,3.991,0,0,1-.769.032,2.147,2.147,0,0,1,.729-1.205A12.413,12.413,0,0,1,81.9,47.56c.359-.273.738-.52,1.1-.793.343-.261.889-.114,1.217-.595a1.371,1.371,0,0,0-1.549.1c-.818.618-1.625,1.256-2.381,1.946a3.226,3.226,0,0,0-.845,1.192A1.762,1.762,0,0,1,78.1,50.549c-1.152.308-2.291.668-3.454.924a7.51,7.51,0,0,1-3.3.159,2.286,2.286,0,0,1-.51-.268,1.672,1.672,0,0,1,.194-.4A16,16,0,0,1,74.906,47.761Zm-3.912-3.708a49.316,49.316,0,0,1,.139-5.909,22.953,22.953,0,0,1,1.326-6c.51-1.254.924-2.548,1.441-3.8.344-.831.8-1.617,1.2-2.426.455-.92.881-1.855,1.36-2.762.615-1.16,1.289-2.29,1.909-3.447a59,59,0,0,1,3.759-6.07c.661-.94,1.282-1.908,1.95-2.843A49.129,49.129,0,0,1,88.129,6c.559-.6,1.15-1.179,1.668-1.814a22.91,22.91,0,0,1,2.79-2.6A3.762,3.762,0,0,1,93.3,1.21a2.6,2.6,0,0,1,.011.57A79,79,0,0,1,89.785,11.9c-.13.33-.326.633-.562,1.087a2.341,2.341,0,0,1-.3-.5,5.535,5.535,0,0,1-.023-2.318,16.513,16.513,0,0,1,1.007-3.928c.177-.368.381-.725.561-1.092.082-.17.133-.353.2-.531l-.144-.093A3.531,3.531,0,0,0,90.042,5,8.935,8.935,0,0,0,88.724,8.42a20.822,20.822,0,0,0-.353,2.562,5.7,5.7,0,0,0,.114,1.707,3.559,3.559,0,0,1-.375,2.6,84.252,84.252,0,0,1-4.436,7.818,4.73,4.73,0,0,1-.471.507,4.75,4.75,0,0,1-.384-.684,8.763,8.763,0,0,1,.224-6.036c.519-1.383,1.148-2.725,1.719-4.088.106-.251.173-.518.281-.846a.532.532,0,0,0-.706.387c-.242.653-.473,1.308-.718,1.959-.421,1.114-.882,2.213-1.268,3.339a8.188,8.188,0,0,0,.13,5.794,1.872,1.872,0,0,1-.213,1.951c-1.368,1.951-2.7,3.928-4.037,5.9a64.374,64.374,0,0,0-4.394,6.835c-.39.767-.738,1.559-1.062,2.356-.434,1.066-.825,2.148-1.24,3.221-.084.22-.19.431-.325.735C71.1,44.241,70.994,44.147,70.994,44.053Zm.57,2.1a3.5,3.5,0,0,1,.244-1.639,34.551,34.551,0,0,1,4.034-8.821c1.654-2.494,3.372-4.946,5.068-7.413.674-.98,1.366-1.949,2.081-2.969.4-.171.946.126,1.359-.274.322-.312.744-.524,1.047-.85a22.2,22.2,0,0,0,2.764-2.969,5.149,5.149,0,0,0,.407-.748.339.339,0,0,0-.114-.3.367.367,0,0,0-.324.019.694.694,0,0,0-.218.286,13.854,13.854,0,0,1-3.264,3.652,1.209,1.209,0,0,1-.418.256,1.824,1.824,0,0,1-.455.04c-.009-.149-.076-.328-.017-.441a11.836,11.836,0,0,1,.7-1.156,28.407,28.407,0,0,0,2.212-3.837c.58-1.222,1.283-2.385,1.951-3.563a1.161,1.161,0,0,1,.493-.512,8.378,8.378,0,0,0,3.144-2.69,9.528,9.528,0,0,0,.746-.976c.06-.092-.013-.271-.035-.527-.558.34-.645.883-.981,1.221-.377.378-.739.771-1.134,1.13a2.381,2.381,0,0,1-1.279.821,1.447,1.447,0,0,1,.045-.494,43.194,43.194,0,0,0,2.139-5.243A3.4,3.4,0,0,1,92.953,6.5,9.133,9.133,0,0,0,95.57,3.588a1.473,1.473,0,0,0,.12-.343c.008-.03-.032-.072-.078-.162-.437.193-.581.64-.853.965s-.5.657-.791.942a2.915,2.915,0,0,1-1,.808c-.075-.077-.129-.11-.124-.131A17.666,17.666,0,0,1,94.207,1.6,1.879,1.879,0,0,1,95.433.649a.519.519,0,0,1,.638.24,3.664,3.664,0,0,1,.619,1.972A11.349,11.349,0,0,1,95.413,8.07c-.371.686-.719,1.385-1.066,2.084a2.459,2.459,0,0,0-.244,1.791,3.982,3.982,0,0,1-.732,3.374c-.923,1.407-1.805,2.84-2.713,4.257-.554.864-1.128,1.714-1.679,2.58s-1.087,1.739-1.622,2.613c-.429.7-.851,1.4-1.272,2.11-.168.281-.342.561-.485.854-.667,1.364-1.325,2.733-1.987,4.1a25.635,25.635,0,0,1-2.889,4.432c-1.1,1.429-2.282,2.8-3.478,4.152-.734.828-1.551,1.584-2.355,2.347A14.054,14.054,0,0,0,73,44.861a8.474,8.474,0,0,1-.9,1.013A2.449,2.449,0,0,1,71.563,46.154ZM59.033,61.565a16.73,16.73,0,0,1,3.511-4.239c.476-.389.912-.826,1.373-1.234q2.35-2.082,4.707-4.157a4.344,4.344,0,0,1,.383-.272c.36.14.308.381.174.606a1.675,1.675,0,0,1-.345.345q-1.963,1.778-3.924,3.554c-1.153,1.049-2.306,2.1-3.446,3.163-.629.587-1.227,1.207-1.85,1.8A5.835,5.835,0,0,1,59.033,61.565Zm-8.656,7.41c.013.4-.321.649-1.19.952a2,2,0,0,1,.528-1.2Zm-.131-2.851a5.477,5.477,0,0,1,.942-3.273A5.8,5.8,0,0,1,50.246,66.125ZM69.41,14.159a50.231,50.231,0,0,1,1.463,6.1c.1,1.06.143,2.126.2,3.191.025.492-.009.987.026,1.478a9.578,9.578,0,0,1-.369,3.411,7.573,7.573,0,0,0-.2,1.213,15.916,15.916,0,0,1-.661,3.253,12.017,12.017,0,0,0-.429,1.67A45.852,45.852,0,0,1,65.8,45.047c-.822,1.791-1.64,3.583-2.412,5.4a22.621,22.621,0,0,1-4.414,6.63,8.193,8.193,0,0,1-.66.553,19.372,19.372,0,0,0-1.571,1.383,15.2,15.2,0,0,1-3.062,2.262,1.523,1.523,0,0,1-1.325.322,4.52,4.52,0,0,1,.122-.6,15.241,15.241,0,0,1,1.485-3.105c.674-1.08,1.33-2.171,1.979-3.265.257-.433.508-.836,1.067-.936a1.418,1.418,0,0,0,.519-.315,34.656,34.656,0,0,0,6.338-6.518.658.658,0,0,0,.161-.323.482.482,0,0,0-.14-.3c-.033-.037-.157-.023-.222.008a.483.483,0,0,0-.169.172,25.816,25.816,0,0,1-4.7,5.19,2.412,2.412,0,0,1-1.321.712,4.7,4.7,0,0,1,.252-.7q2.616-4.6,5.256-9.2a3.309,3.309,0,0,1,.739-.795,14.357,14.357,0,0,0,1.516-1.241c1.081-1.235,2.095-2.529,3.122-3.809a5.983,5.983,0,0,0,.446-.773c-.164-.062-.283-.152-.363-.126a.542.542,0,0,0-.252.252,20.766,20.766,0,0,1-3.469,4.3,4.267,4.267,0,0,1-.448.365c-.225-.175-.122-.343-.054-.475a48.391,48.391,0,0,0,3.414-9.231,51.779,51.779,0,0,0,1.637-8.712c.079-.735.127-1.472.179-2.209a37.185,37.185,0,0,0-.3-5.036c-.028-.424-.262-.86-.009-1.286A2.11,2.11,0,0,1,69.41,14.159Zm-19.089,29.8c1.022-1.826,2.082-3.631,3.143-5.436a8.848,8.848,0,0,1,.86-1.2c1.823-2.167,3.663-4.321,5.487-6.488.45-.534.891-1.078,1.286-1.653a14.858,14.858,0,0,0,2.348-8.031,12.934,12.934,0,0,1,.666-4.85c.252-.693.453-1.406.661-2.114a7.868,7.868,0,0,1,1.907-3.122,2.7,2.7,0,0,1,.5-.341,3.051,3.051,0,0,1,.956,1.717,8.408,8.408,0,0,1,.441,1.918,31.736,31.736,0,0,1,.181,8.223,4.9,4.9,0,0,1-.275,1.635c-.394.1-.49-.182-.6-.375A10.97,10.97,0,0,1,66.5,18.787a6.123,6.123,0,0,1,.64-3.462c.046-.079-.108-.275-.17-.416-.136.063-.348.093-.4.2a4.384,4.384,0,0,0-.349,1.046,10.244,10.244,0,0,0,0,4.04,27.359,27.359,0,0,0,.824,2.962,9.322,9.322,0,0,0,.9,1.74,1.459,1.459,0,0,1,.286,1.143c-.351,1.6-.578,3.242-1.034,4.814a50.918,50.918,0,0,1-3.15,8.543c-.254.51-.545,1-.85,1.561a2.849,2.849,0,0,1-1.593-1.5,12.97,12.97,0,0,1-.545-2.64,11.142,11.142,0,0,1,.086-1.959c.02-.3.077-.609.1-.913a1.78,1.78,0,0,0,.092-.668.141.141,0,0,0-.178-.123c-.007-.022-.011-.044-.02-.067h0c-.01.033-.019.067-.028.1-.011.01-.024.014-.033.028a2.508,2.508,0,0,0-.218.817,5.61,5.61,0,0,0-.1.669,7.4,7.4,0,0,0,.073,3.161,1.736,1.736,0,0,1,.1.48c-.045,1.425.84,2.328,1.84,3.244a5.17,5.17,0,0,1-.287.754c-.849,1.5-1.717,2.983-2.571,4.478-.974,1.709-1.938,3.422-2.907,5.133a3,3,0,0,1-.192.313.394.394,0,0,1-.7-.075,7.888,7.888,0,0,1-.891-2.663c-.039-1.1-.049-2.207-.057-3.311a2.054,2.054,0,0,0-.026-.874,1.225,1.225,0,0,1-.165-.016,4.91,4.91,0,0,0-.293,2.23c0,.286.078.575.058.859a8.006,8.006,0,0,0,1.08,4.361,1.174,1.174,0,0,1-.082,1.267c-.506.845-1.01,1.692-1.534,2.526-.587.934-1.195,1.854-1.834,2.842a3.22,3.22,0,0,1-.656-.29,3.372,3.372,0,0,1-1.415-2.864,5.332,5.332,0,0,1-.01-.614,24.872,24.872,0,0,1,.672-4.621c.105-.328.252-.671,0-1.016-.113.076-.221.11-.234.165-.209.877-.446,1.752-.6,2.64-.135.808-.175,1.633-.253,2.45-.027.286-.053.573-.059.86A4.345,4.345,0,0,0,52.17,60.2l-.478,1.539a3.11,3.11,0,0,1-2.145-.12,10.7,10.7,0,0,1-1.4-1,7.4,7.4,0,0,1-1.678-2.114,4.14,4.14,0,0,1-.428-1.4,11.123,11.123,0,0,1,.832-5.665c.1-.268.254-.519.338-.791A34.585,34.585,0,0,1,50.321,43.963ZM47.3,41.775a7.426,7.426,0,0,1,.562,4.432,1.355,1.355,0,0,0-.067.711,1.614,1.614,0,0,1-.175,1.292c-.6,1.528-1.24,3.043-1.745,4.6a9.873,9.873,0,0,0-.437,4.376,4.924,4.924,0,0,0,1.3,2.73,7.355,7.355,0,0,0,3.6,2.55c-.058.392-.09.708-.154,1.017-.191.924-.42,1.841-.585,2.77a16.406,16.406,0,0,1-1.528,4.4,3.742,3.742,0,0,1-.434.592c-.123.162-.334.3-.366.48a4.16,4.16,0,0,1-1.376,2c-1.669,1.812-3.3,3.659-5.057,5.387-1.023,1.008-2.085,1.976-3.027,3.062-.7.808-1.405,1.61-2.045,2.463a6.778,6.778,0,0,1-2.025,1.769c-.314.186-.619.386-1.176.735.282-.383.4-.551.525-.712.858-1.1,1.71-2.207,2.579-3.3A75.742,75.742,0,0,0,40.35,76.5a35.408,35.408,0,0,0,2.979-5.519c.466-1.14.879-2.3,1.305-3.457.653-1.771,1.3-3.544,1.94-5.321a2.48,2.48,0,0,0,.236-1.31c-.234-.195-.392-.078-.462.14-.162.508-.262,1.037-.443,1.537-.724,2.009-1.448,4.017-2.213,6.01-.5,1.3-1.049,2.587-1.614,3.862a23.193,23.193,0,0,1-2.123,3.6c-.507.744-.968,1.52-1.46,2.275a52.458,52.458,0,0,1-3.825,5.133c-.316.376-.592.786-.9,1.174a11.133,11.133,0,0,1-2.3,2.385c-.571.4-1.1.859-1.648,1.292a12.05,12.05,0,0,1-2.912,1.571c-.055.024-.148-.043-.268-.082a4.237,4.237,0,0,1,.885-1.3,54.687,54.687,0,0,0,4.27-5.57c1.114-1.625,2.3-3.2,3.349-4.868A62,62,0,0,0,42.563,62.68a77.459,77.459,0,0,0,2.08-8.362,30.988,30.988,0,0,0,.68-4.375,1.851,1.851,0,0,0,.035-.366,5.316,5.316,0,0,1,.407-2.743,29.382,29.382,0,0,0,.882-3.584,21.412,21.412,0,0,0,.206-2.224C47.061,41.371,47.192,41.567,47.3,41.775ZM14.862,101.731c.473-.715.947-1.433,1.48-2.1,1.678-2.112,3.549-4.053,5.393-6.018a4.912,4.912,0,0,0,1.007-1.489,2.421,2.421,0,0,1-1.6-1.9,7.2,7.2,0,0,1-.055-2.679c.01-.088.015-.179.022-.268.061-.282.136-.566.23-.859a5.8,5.8,0,0,0,.5-1.5,8.9,8.9,0,0,1,.6-1.314,58.636,58.636,0,0,1,3.346-5.163c1.063-1.407,1.995-2.913,2.986-4.375.252-.373.517-.737.764-1.113q1.25-1.905,2.49-3.817c.782-1.205,1.568-2.407,2.331-3.625q.818-1.305,1.577-2.647a38.1,38.1,0,0,0,2.872-5.581,43.6,43.6,0,0,0,2.328-6.876c.106-.565.2-1.131.294-1.7a26.291,26.291,0,0,1,2.226-7.281,3.3,3.3,0,0,1,1.153-1.411.561.561,0,0,1,.85.17,3.671,3.671,0,0,1,.562,2.474,11.086,11.086,0,0,1-.417,1.925,17.04,17.04,0,0,1-1.024,3.159,1.736,1.736,0,0,0-.119.959,14.018,14.018,0,0,1-.292,4.41c-.482,2.207-.946,4.42-1.49,6.611-.326,1.313-.786,2.593-1.2,3.884a5.307,5.307,0,0,1-.374.72,6.207,6.207,0,0,1-1.049-3.2,7.991,7.991,0,0,1,.455-3.247c-.369-.2-.487.05-.56.275a7.927,7.927,0,0,0-.042,5.2,10.2,10.2,0,0,0,.6,1.481,1.538,1.538,0,0,1,.061,1.418c-.682,1.584-1.3,3.2-2.092,4.73-1.045,2-2.236,3.925-3.368,5.88-.183.316-.35.653-.725.781-.349-.037-.493-.287-.613-.549a6.752,6.752,0,0,1-.468-4.1,17.209,17.209,0,0,1,1.769-5.227,2.152,2.152,0,0,0,.248-.684,2.786,2.786,0,0,0-.976,1.321,14.77,14.77,0,0,0-1.28,4.1,19.889,19.889,0,0,0-.286,2.066,5.83,5.83,0,0,0,.878,3.529.9.9,0,0,1-.075,1.131c-1.511,2.1-3.011,4.211-4.522,6.313a4.776,4.776,0,0,1-.565.643.418.418,0,0,1-.637-.113,2.093,2.093,0,0,1-.248-.683,7.6,7.6,0,0,1,.032-2.818c.03-.119.06-.239.081-.36.129-.728.216-1.466.393-2.182.166-.673.425-1.322.682-2.1a.937.937,0,0,0-.6.58c-.225.659-.467,1.317-.629,1.992a15.087,15.087,0,0,0-.623,4.5,2.45,2.45,0,0,0,.786,2.014,6.133,6.133,0,0,1-.381.672c-1.217,1.607-2.613,3.054-3.976,4.536-1.835,2-3.743,3.92-5.607,5.886a34.98,34.98,0,0,0-2.694,3.666c-.256.353-.52.7-.781,1.049A1.407,1.407,0,0,1,14.862,101.731Zm-.446,3.436c-.3-.147-.216-.424-.119-.619a22.148,22.148,0,0,1,1.213-2.278,29.214,29.214,0,0,1,3.9-4.894c1.686-1.673,3.268-3.451,4.894-5.184.5-.536,1-1.075,1.614-1.728a1.36,1.36,0,0,0,1.536-.137c.456-.256.933-.474,1.416-.717.129.338-.1.425-.235.531-.738.587-1.493,1.152-2.233,1.735-.675.532-1.358,1.058-2.006,1.622a15.648,15.648,0,0,0-3.773,5.4,2.034,2.034,0,0,0-.1,1.558,4.575,4.575,0,0,1,.14.472c.113.486.051.685-.348.937-.451.283-.916.545-1.382.8C17.432,103.5,15.927,104.333,14.417,105.167ZM.98,123.515c-.108-.094-.236-.274-.212-.387a5.787,5.787,0,0,1,.322-.927A26.9,26.9,0,0,1,3.52,117.78a80.183,80.183,0,0,1,5.073-6.811c.265-.333.508-.729,1.13-.717a8.253,8.253,0,0,1-.7.982,29.091,29.091,0,0,0-2.721,3.8c-.069.1-.1.233-.171.327-1.674,2.066-2.579,4.566-3.873,6.845a9.374,9.374,0,0,1-.958,1.265A.331.331,0,0,1,.98,123.515ZM7.5,115.551c-.715,1.477-1.629,2.846-2.246,4.382-.595,1.478-1.346,2.894-2.037,4.353l-.369-.084a.734.734,0,0,0-.446.026.321.321,0,0,1-.111-.057c-.15-.119-.238-.312-.384-.437a3.7,3.7,0,0,0,.563-.74c.574-1.043,1.118-2.1,1.641-3.174a23.579,23.579,0,0,1,1.673-3.151c.795-1.147,1.558-2.316,2.352-3.464.373-.54.779-1.058,1.19-1.571a1.94,1.94,0,0,1,.431-.312C9.135,112.836,8.187,114.122,7.5,115.551Zm10.444-11.266a29.9,29.9,0,0,1-4.889,4.095c-.541.345-1.134.611-1.7.914,2.387-3.073,4.126-4.407,6.85-5.471C18.3,104.084,18.058,104.168,17.939,104.285Zm18.2-17.04c3.932-1.674,7.777-3.545,11.593-5.471,1.466-.739,2.872-1.6,4.325-2.363,2.107-1.111,4.23-2.195,6.351-3.28.914-.468,1.838-.916,2.763-1.36,3.116-1.5,6.4-2.567,9.582-3.911a12.482,12.482,0,0,1,3.083-.84,2.436,2.436,0,0,1,1.743.213l-.248.649c.025.055.032.1.06.126.205.18.528.322.6.543a1.948,1.948,0,0,1-.062.959,2.9,2.9,0,0,1-.334.653c-.194.362-.384.726-.584,1.084a5.193,5.193,0,0,1-.445.733c-.9,1.117-1.805,2.236-2.743,3.325a15.339,15.339,0,0,1-1.407,1.379c-.61.549-1.268,1.045-1.87,1.6a40.835,40.835,0,0,1-5.4,4.286c-.961.627-1.826,1.4-2.76,2.07-2.167,1.558-4.359,3.082-6.522,4.644-2.9,2.092-5.82,4.157-8.657,6.33a31.887,31.887,0,0,1-7.078,3.958q-1.249.528-2.493,1.064a17.482,17.482,0,0,1-9.181,1.152,3.053,3.053,0,0,1-.83-.206c-.64-.274-1.265-.58-1.892-.884a1.335,1.335,0,0,1-.4-.278,11.563,11.563,0,0,1-.79-.946c-.192-.262-.34-.557-.538-.889.157-.1.274-.24.412-.266,1.57-.3,3.142-.583,4.74-.874a7.938,7.938,0,0,0,6.427,1.152,11.1,11.1,0,0,1,3.174-.343c.1.008.207-.089.3-.131.017-.266-.156-.314-.317-.3-.981.08-1.963.166-2.941.273-.449.049-.889.165-1.336.227a8.032,8.032,0,0,1-3.514-.467.787.787,0,0,1-.662-.693,2.27,2.27,0,0,1,.4-.232,56.893,56.893,0,0,0,11.138-5.51c.139-.088.291-.156.423-.252a2.089,2.089,0,0,1,1.835-.478c1.795-.206,3.591-.4,5.384-.622.815-.1,1.624-.248,2.435-.376.259-.041.474-.128.45-.527a31.545,31.545,0,0,0-3.867.567,11.115,11.115,0,0,1-3.946.111,8.445,8.445,0,0,1,.7-.535c1.683-1.029,3.383-2.029,5.055-3.075,1.462-.914,2.9-1.864,4.334-2.824a3.131,3.131,0,0,1,1.6-.528c1.144-.08,2.282-.265,3.42-.429s2.274-.35,3.409-.537a1.29,1.29,0,0,0,.438-.185c.042-.025.038-.14.036-.214,0-.032-.045-.093-.071-.093a3.3,3.3,0,0,0-.6.016c-1.336.233-2.667.5-4.006.71a3.934,3.934,0,0,1-1.877.054c-.175-.264-.01-.386.1-.47,2.377-1.755,4.838-3.387,7.337-4.958a3.687,3.687,0,0,0,.881.453,1.984,1.984,0,0,0,.843-.116c1.312-.34,2.622-.692,3.93-1.045a2.108,2.108,0,0,0,.575-.214.662.662,0,0,0,.264-.361c.04-.149-.28-.271-.5-.149a14.836,14.836,0,0,1-3.765,1.122,1.276,1.276,0,0,1-1.059.008c-.121-.307.05-.485.257-.631.738-.521,1.464-1.062,2.227-1.546,1.524-.965,3.07-1.9,4.6-2.842.02-.323-.186-.356-.39-.28a4.043,4.043,0,0,0-.767.391q-2.026,1.292-4.038,2.6c-.274.179-.515.41-.788.591a6.654,6.654,0,0,1-.69.344c-.025-.2-.083-.33-.045-.419a6.637,6.637,0,0,1,1.763-2.635c.3-.252.664-.47.77-.889-.231-.205-.413-.085-.567.042a8.181,8.181,0,0,0-2.539,3.414,4.019,4.019,0,0,1-2.106,2.425c-1.857,1.133-3.648,2.377-5.46,3.582a10.728,10.728,0,0,1-1.441.9,3.588,3.588,0,0,1,.118-.6,9.678,9.678,0,0,1,1.755-2.663,43.265,43.265,0,0,1,3.952-3.889,2.376,2.376,0,0,0,.908-1.1c-.144-.2-.294-.2-.43-.072a50.71,50.71,0,0,0-5.783,6.055,23.64,23.64,0,0,0-1.812,2.93,2.064,2.064,0,0,1-.69.823c-1.976,1.255-3.947,2.516-5.928,3.76-1.008.633-2.032,1.242-3.055,1.851-.34.2-.7.37-1.192.627a4.289,4.289,0,0,1,.174-.611,20.4,20.4,0,0,1,4.24-5.865c1.107-1.035,2.325-1.952,3.513-2.9a3.8,3.8,0,0,0,1.12-1.235,1.643,1.643,0,0,0-.4.161c-.821.617-1.667,1.2-2.439,1.878a40.224,40.224,0,0,0-3.141,2.956,28.5,28.5,0,0,0-2.42,3.1c-.725,1.042-1.331,2.166-2.022,3.233a2.332,2.332,0,0,1-.71.657,64.921,64.921,0,0,1-7.872,4.342c-1.084.493-2.2.923-3.307,1.354a3.239,3.239,0,0,1-.791.1.976.976,0,0,1,.221-.986,24.019,24.019,0,0,1,5.8-6.325c.847-.651,1.675-1.325,2.513-1.989.644-.51,1.3-1.011,1.93-1.532a8.865,8.865,0,0,0,.894-.842c.084-.09.064-.274.109-.5a2.059,2.059,0,0,0-.428.18c-.731.6-1.449,1.213-2.181,1.808-1.242,1.011-2.506,2-3.734,3.022a22.474,22.474,0,0,0-4.786,5.106,14.35,14.35,0,0,0-1.268,1.96,1.318,1.318,0,0,1-.621.551,3.777,3.777,0,0,1-1.053.34c-1.37.224-2.746.417-4.143.625a1.484,1.484,0,0,1-.344-1.5,4.787,4.787,0,0,1,.409-1.028A16.539,16.539,0,0,1,25.459,93.2c.192-.153.374-.416.581-.437.738-.076,1.089-.683,1.617-1.047a25.152,25.152,0,0,1,2.384-1.523C32.032,89.126,34.056,88.131,36.14,87.245ZM51.208,70.761c-1.275,1.095-2.5,2.247-3.721,3.406-1.4,1.329-2.739,2.72-4.155,4.029-1.289,1.193-2.645,2.313-3.971,3.465a4.949,4.949,0,0,1,1.21-1.531c.414-.4.806-.817,1.2-1.234.535-.567,1.061-1.143,1.592-1.715,1.341-1.443,2.735-2.841,4.007-4.343a20.38,20.38,0,0,1,3.768-3.516,29.9,29.9,0,0,0,3.774-3.153A1.3,1.3,0,0,1,56,65.709c.209.022.408.059.5.282a.427.427,0,0,1-.176.532C54.619,67.934,52.889,69.318,51.208,70.761Zm5.281-5.9a3.377,3.377,0,0,1,.871-1.1c.182.887.2,1.726,1.024,2.292A2.059,2.059,0,0,1,56.489,64.862Zm8.161,1.425c-.554-.047-1.107-.117-1.661-.178a2.463,2.463,0,0,1,1.622-.512c.338.01.521.155.481.387A.363.363,0,0,1,64.65,66.287Zm1.682-1.66a4.874,4.874,0,0,1,.525-.592,40.436,40.436,0,0,1,3.9-2.8,15.409,15.409,0,0,1,3.827-1.672c2.409-.679,4.827-1.336,7.266-1.9a44.561,44.561,0,0,1,8.427-.994,29.6,29.6,0,0,1,5.637.474,14.736,14.736,0,0,1,3.805.967c.149.067.313.1.458.179a55.862,55.862,0,0,1,6.429,3.625,14.451,14.451,0,0,1,1.187,1.013,7.817,7.817,0,0,1-.808-.193,48.606,48.606,0,0,0-7.618-1.981,26.665,26.665,0,0,0-4.655-.4c-1.4,0-2.791-.078-4.185-.131a1.074,1.074,0,0,1-.322-.123c-.03-.39.262-.52.5-.643a10.542,10.542,0,0,1,4.327-1.305,3.735,3.735,0,0,0,.612-.013.585.585,0,0,0,.344-.271c.079-.15-.166-.336-.412-.332a1.039,1.039,0,0,0-.123.009,17.525,17.525,0,0,0-3.833.875,6.214,6.214,0,0,0-2.368,1.5,1.392,1.392,0,0,1-.953.481c-2.381.166-4.72.626-7.07,1.013a4.181,4.181,0,0,1-.717-.023c.155-.3.208-.562.368-.678.666-.475,1.364-.907,2.054-1.349a4.136,4.136,0,0,0,1.192-.847c-.234-.041-.389-.122-.492-.079A15.2,15.2,0,0,0,80.3,60.53a1.151,1.151,0,0,0-.393.6c-.115.5-.471.623-.892.713-.8.172-1.605.346-2.4.538q-4.368,1.056-8.734,2.125A2.749,2.749,0,0,1,66.333,64.627ZM96.1,68.692c-3.039.037-6.079-.034-9.117.019a35.466,35.466,0,0,1-3.562.128c-.368-.031-.738-.054-1.1-.117A42.2,42.2,0,0,1,75.728,67.2a3.08,3.08,0,0,0-.965-.165,27.233,27.233,0,0,0-5.039.166,5.286,5.286,0,0,1-3.012-.418c-.629-.261-.708-.41-.772-1.285,1.1-.377,2.28-.546,3.417-.858s2.3-.6,3.46-.887q1.675-.409,3.361-.778a31.83,31.83,0,0,1,3.519-.7,7.233,7.233,0,0,0,3.832,3.316c1.08.5,2.129,1.068,3.207,1.573a11.157,11.157,0,0,0,1.385.478c.048.015.161-.062.187-.122a.243.243,0,0,0-.041-.221.982.982,0,0,0-.3-.192c-.825-.364-1.661-.7-2.475-1.087-.853-.4-1.684-.853-2.528-1.275a6.011,6.011,0,0,1-1.782-1.3c-.372-.405-.369-.407-.594-1.243a1.944,1.944,0,0,1,.511-.244c2.109-.334,4.217-.668,6.332-.965A11.482,11.482,0,0,1,89,60.978a13.114,13.114,0,0,1,3.305-.187c1.067.024,2.135.078,3.2.075a3.866,3.866,0,0,1,2.169.735,40,40,0,0,0,7.7,4.088c.728.27,1.492.444,2.243.651.168.046.346-.007.366-.2a.361.361,0,0,0-.18-.278,1.921,1.921,0,0,0-.586-.174,11.789,11.789,0,0,1-2.893-1.007,41.069,41.069,0,0,1-5.6-3.084c-.062-.037-.1-.119-.209-.257a1.558,1.558,0,0,1,.439-.089,11.318,11.318,0,0,1,1.214.2,45.812,45.812,0,0,1,6.652,1.8,19.611,19.611,0,0,1,3.659,2.018,2.883,2.883,0,0,1,.966,1.1c.166.325.33.651.515,1.019a.647.647,0,0,0,.04.189.776.776,0,0,0,.275.3.715.715,0,0,0,.619.069.32.32,0,0,0,.145.015.537.537,0,0,1-.38.54,2.671,2.671,0,0,1-1.066.222c-1.273-.039-2.55-.071-3.812-.219a27.565,27.565,0,0,0-4.182-.033C101.105,68.555,98.6,68.662,96.1,68.692Z" transform="translate(0 0)"/></g></g><g transform="translate(88.858 60.998)"><g transform="translate(0 0)"><path class="bl" d="M7.063,6.376A1.357,1.357,0,0,0,6.7,6.06c-.4-.209-.81-.39-1.212-.592A17.5,17.5,0,0,1,1.38,2.193,4.129,4.129,0,0,1,.647.938,2.36,2.36,0,0,0,.159,0a1.127,1.127,0,0,0-.1.92A4.569,4.569,0,0,0,1.44,3.051,24.186,24.186,0,0,0,6.418,6.6a1.379,1.379,0,0,0,.462.121A.248.248,0,0,0,7.065,6.6.244.244,0,0,0,7.063,6.376Z"/></g></g><g transform="translate(88.995 60.979)"><g transform="translate(0 0)"><path class="bl" d="M0,0C.008.007.014.014.021.019L.03,0Z"/></g></g><g transform="translate(55.038 38.975)"><g transform="translate(0 0)"><path class="bl" d="M.3,5.451A30.439,30.439,0,0,1,2.366.207.146.146,0,0,0,2.108.071,13.739,13.739,0,0,0,0,5.383.152.152,0,0,0,.3,5.451Z"/></g></g><g transform="translate(61.258 28.817)"><g transform="translate(0)"><path class="bl" d="M1.441.2C1.5.069,1.327-.075,1.23.045A6.012,6.012,0,0,0,0,2.986a.146.146,0,0,0,.285.066C.633,2.071,1.008,1.144,1.441.2Z"/></g></g><g transform="translate(51.115 48.18)"><g transform="translate(0 0)"><path class="bl" d="M.08,1.276C.2,1.381.4,1.243.327,1.11c.02-.041.039-.081.058-.122.045-.1.089-.2.129-.3A1.81,1.81,0,0,0,.656.142a.146.146,0,0,0-.251-.1A2.163,2.163,0,0,0,.1.709C.041.881-.081,1.129.08,1.276Z"/></g></g><g transform="translate(51.878 46.19)"><g transform="translate(0 0)"><path class="bl" d="M.623.138C.628-.023.42-.041.346.073a5.425,5.425,0,0,0-.33.768A.16.16,0,0,0,.3.99,1.878,1.878,0,0,0,.623.138Z"/></g></g><g transform="translate(36.011 62.734)"><path class="bl" d="M1.135,1.6c.31-.492.7-.934.984-1.438C2.188.043,2.028-.051,1.937.03A8.116,8.116,0,0,0,.011,2.984.127.127,0,0,0,.236,3.1C.544,2.607.823,2.094,1.135,1.6Z"/></g><g transform="translate(62.396 83.301)"><path class="bl" d="M.072.7C-.081.791.034,1,.189.968A3.591,3.591,0,0,0,1.767.257c.121-.1-.018-.29-.154-.252A4.242,4.242,0,0,0,.918.3C.637.433.343.548.072.7Z"/></g><g transform="translate(65.181 82.137)"><path class="bl" d="M.22.723A2.668,2.668,0,0,0,.883.254c.089-.1,0-.3-.149-.244a2.61,2.61,0,0,0-.67.455C-.084.583.049.827.22.723Z"/></g><g transform="translate(71.357 70.981)"><g transform="translate(0 0)"><path class="bl" d="M.21,2.732A18.064,18.064,0,0,0,3.336.237.142.142,0,0,0,3.16.019,16.169,16.169,0,0,0,.038,2.52.138.138,0,0,0,.21,2.732Z"/></g></g></g></g></svg>